<svg xmlns="http://www.w3.org/2000/svg" xmlns:xlink="http://www.w3.org/1999/xlink" viewBox="0 0 2235.11 1132.44"><defs><style>.cls-1,.cls-38,.cls-39,.cls-49{fill:none;}.cls-2{isolation:isolate;}.cls-3{fill:#dbedfc;}.cls-4{fill:#fff;}.cls-5{fill:url(#linear-gradient);}.cls-6{clip-path:url(#clip-path);}.cls-10,.cls-7{fill:#b6cfff;}.cls-8{fill:url(#linear-gradient-2);}.cls-9{fill:url(#linear-gradient-3);}.cls-10{opacity:0.4;}.cls-11{fill:#6da0ff;}.cls-12{opacity:0.5;}.cls-13{fill:url(#linear-gradient-4);}.cls-14{fill:url(#linear-gradient-5);}.cls-15{fill:url(#linear-gradient-6);}.cls-16{fill:url(#linear-gradient-7);}.cls-17{fill:#01296f;}.cls-18,.cls-30,.cls-48{mix-blend-mode:multiply;}.cls-18{fill:url(#linear-gradient-8);}.cls-19{fill:url(#linear-gradient-9);}.cls-20{fill:url(#linear-gradient-10);}.cls-21{fill:url(#linear-gradient-11);}.cls-22{fill:url(#linear-gradient-12);}.cls-23{fill:url(#linear-gradient-13);}.cls-24{fill:url(#linear-gradient-14);}.cls-25{fill:url(#linear-gradient-15);}.cls-26{fill:#002774;}.cls-27{fill:url(#linear-gradient-16);}.cls-28{fill:url(#linear-gradient-17);}.cls-29{fill:url(#linear-gradient-18);}.cls-30{opacity:0.9;fill:url(#radial-gradient);}.cls-31{fill:url(#linear-gradient-19);}.cls-32{fill:url(#linear-gradient-20);}.cls-33{fill:url(#linear-gradient-21);}.cls-34{fill:#cbd5dd;}.cls-35{fill:#eaad00;}.cls-36{fill:#ecf5ff;}.cls-37{fill:#f882c0;}.cls-38{stroke:#eaad00;}.cls-38,.cls-39,.cls-49{stroke-miterlimit:10;stroke-width:0.69px;}.cls-39{stroke:#000;}.cls-40{fill:url(#linear-gradient-22);}.cls-41{fill:url(#linear-gradient-23);}.cls-42{fill:url(#linear-gradient-24);}.cls-43{fill:url(#linear-gradient-25);}.cls-44{fill:url(#linear-gradient-26);}.cls-45{fill:url(#linear-gradient-27);}.cls-46{fill:#e881b5;}.cls-47{fill:url(#linear-gradient-28);}.cls-48{fill:url(#linear-gradient-29);}.cls-49{stroke:#f9fafb;}.cls-50{fill:url(#linear-gradient-30);}.cls-51{fill:url(#linear-gradient-31);}</style><linearGradient id="linear-gradient" x1="562.98" y1="556.42" x2="635.83" y2="358.2" gradientUnits="userSpaceOnUse"><stop offset="0" stop-color="#f987c0"/><stop offset="1" stop-color="#f987c0" stop-opacity="0"/></linearGradient><clipPath id="clip-path" transform="translate(169.34 -120.53)"><path class="cls-1" d="M2,214.48S216.82,219.55,360,344s401.5,142.19,506.35,111.72,257.48-40.51,383.6-7.62c301.77,78.72,437.31-307.23,670-256.45V1060s-186.68-149.81-442.42-66c-289.88,95-432.19-15.23-613.76-22.85-152.13-6.38-387.39,102.22-501.24,45.7C214.26,943.2,2,1037.15,2,1037.15Z"/></clipPath><linearGradient id="linear-gradient-2" x1="1117.56" y1="658.52" x2="1117.56" y2="209.09" gradientUnits="userSpaceOnUse"><stop offset="0" stop-color="#fff"/><stop offset="1" stop-color="#fff" stop-opacity="0"/></linearGradient><linearGradient id="linear-gradient-3" x1="1117.56" y1="826.1" x2="1117.56" y2="447.7" xlink:href="#linear-gradient"/><linearGradient id="linear-gradient-4" x1="304.24" y1="777.86" x2="736.54" y2="777.86" xlink:href="#linear-gradient-2"/><linearGradient id="linear-gradient-5" x1="58.26" y1="785.02" x2="298.67" y2="785.02" xlink:href="#linear-gradient-2"/><linearGradient id="linear-gradient-6" x1="1423.88" y1="793.26" x2="1680.92" y2="793.26" xlink:href="#linear-gradient-2"/><linearGradient id="linear-gradient-7" x1="1709.11" y1="785.47" x2="1943.87" y2="785.47" xlink:href="#linear-gradient-2"/><linearGradient id="linear-gradient-8" x1="1117.56" y1="962.37" x2="1117.56" y2="823.52" gradientUnits="userSpaceOnUse"><stop offset="0"/><stop offset="1" stop-opacity="0"/></linearGradient><linearGradient id="linear-gradient-9" x1="1820.26" y1="1076.13" x2="1820.26" y2="875.54" xlink:href="#linear-gradient"/><linearGradient id="linear-gradient-10" x1="300.35" y1="1093.9" x2="300.35" y2="923.57" xlink:href="#linear-gradient"/><linearGradient id="linear-gradient-11" x1="90.65" y1="1093.9" x2="90.65" y2="902.39" xlink:href="#linear-gradient"/><linearGradient id="linear-gradient-12" x1="1832.73" y1="676.51" x2="1792.1" y2="972.78" xlink:href="#linear-gradient-2"/><linearGradient id="linear-gradient-13" x1="380.97" y1="749.42" x2="380.97" y2="1038.53" xlink:href="#linear-gradient-2"/><linearGradient id="linear-gradient-14" x1="308.42" y1="749.42" x2="308.42" y2="1038.53" xlink:href="#linear-gradient-2"/><linearGradient id="linear-gradient-15" x1="185.13" y1="416.5" x2="88.66" y2="1000.45" xlink:href="#linear-gradient-2"/><linearGradient id="linear-gradient-16" x1="1293.34" y1="167.13" x2="1293.34" y2="513.78" xlink:href="#linear-gradient-2"/><linearGradient id="linear-gradient-17" x1="1759.04" y1="255.15" x2="1759.04" y2="495.54" xlink:href="#linear-gradient-2"/><linearGradient id="linear-gradient-18" x1="394.45" y1="134.12" x2="394.45" y2="550.65" xlink:href="#linear-gradient-2"/><radialGradient id="radial-gradient" cx="964.51" cy="599.39" r="118.17" gradientTransform="translate(-2740.18 727.17) scale(3.83 0.32)" xlink:href="#linear-gradient-8"/><linearGradient id="linear-gradient-19" x1="1228.18" y1="904.95" x2="1228.18" y2="821.32" xlink:href="#linear-gradient-8"/><linearGradient id="linear-gradient-20" x1="737.31" y1="904.95" x2="737.31" y2="821.32" xlink:href="#linear-gradient-8"/><linearGradient id="linear-gradient-21" x1="1227.66" y1="796.83" x2="1227.66" y2="856.1" xlink:href="#linear-gradient"/><linearGradient id="linear-gradient-22" x1="734.08" y1="761.28" x2="734.08" y2="871.63" xlink:href="#linear-gradient"/><linearGradient id="linear-gradient-23" x1="719.08" y1="686.02" x2="719.08" y2="582.51" xlink:href="#linear-gradient-2"/><linearGradient id="linear-gradient-24" x1="897.08" y1="679.65" x2="897.08" y2="572.78" xlink:href="#linear-gradient-2"/><linearGradient id="linear-gradient-25" x1="1031.78" y1="682.83" x2="1031.78" y2="576.05" xlink:href="#linear-gradient-2"/><linearGradient id="linear-gradient-26" x1="1159.27" y1="679.65" x2="1159.27" y2="577.73" xlink:href="#linear-gradient-2"/><linearGradient id="linear-gradient-27" x1="1290.76" y1="689.2" x2="1290.76" y2="585.66" xlink:href="#linear-gradient-2"/><linearGradient id="linear-gradient-28" x1="1170.86" y1="558.64" x2="1170.86" y2="505.16" xlink:href="#linear-gradient-2"/><linearGradient id="linear-gradient-29" x1="1025.34" y1="592.08" x2="1025.34" y2="481.38" xlink:href="#linear-gradient-8"/><linearGradient id="linear-gradient-30" x1="1197.58" y1="461.68" x2="1197.58" y2="415.67" xlink:href="#linear-gradient"/><linearGradient id="linear-gradient-31" x1="1337.5" y1="452.99" x2="1337.5" y2="421.09" xlink:href="#linear-gradient"/></defs><g class="cls-2"><g id="Layer_1" data-name="Layer 1"><path class="cls-3" d="M143.21,348.38S332.45,239.2,593.3,317.91s271.08,160,439.86,165,437.3-276.76,636.78-220.9,107.4,617,107.4,617-143.21,266.61-572.84,149.81c-331-90-562.61,81.25-749.3,5.08S-53.71,439.79,143.21,348.38Z" transform="translate(169.34 -120.53)"/><path class="cls-4" d="M712.64,469.28c0,64.51-52.67,116.8-117.64,116.8s-117.64-52.29-117.64-116.8S530,352.48,595,352.48,712.64,404.77,712.64,469.28Z" transform="translate(169.34 -120.53)"/><path class="cls-5" d="M712.64,469.28c0,64.51-52.67,116.8-117.64,116.8s-117.64-52.29-117.64-116.8S530,352.48,595,352.48,712.64,404.77,712.64,469.28Z" transform="translate(169.34 -120.53)"/><g class="cls-6"><rect class="cls-7" width="2235.11" height="1132.44"/><rect class="cls-8" width="2235.11" height="1132.44"/><rect class="cls-9" width="2235.11" height="1132.44"/><path class="cls-10" d="M-11.64,730.8s149.36-45,168.79-52.47c22.16-8.47,68.19-32.16,81.83-30.47s71.61,35.55,92.07,44S407.77,697,431.64,707.1s134.68,37.25,134.68,37.25l46,8.46s334.16,6.77,387,5.07,160.26-57.55,160.26-57.55,97.18-59.24,115.93-55.86,42.63,5.08,42.63,5.08,64.78-66,80.13-69.4,29-15.24,44.33-8.47,80.13,62.64,88.65,67.72,47.74,32.16,56.26,33.85,97.18,42.32,104,44,54.56,10.16,59.67,10.16,56.26-16.93,56.26-16.93h61.38l27.28,28.77,13.64,20.32L37.81,776.5Z" transform="translate(169.34 -120.53)"/><path class="cls-10" d="M1500.61,749.42s76.72-35.55,88.65-45.7,52.85-50.78,73.31-49.09,87-64.33,100.59-74.48,63.08-59.24,73.31-57.55,32.39,22,32.39,22l23.87-3.39,27.27,1.7L2034.24,763Z" transform="translate(169.34 -120.53)"/><path class="cls-10" d="M1708.6,747.73s-134.2-49.66-151-56.07c-19.15-7.32-58.94-27.8-70.72-26.34s-61.89,30.73-79.57,38-66.31,4.39-86.93,13.17S1204,748.71,1204,748.71L1164.2,756s-288.79,5.86-334.47,4.39-138.5-49.74-138.5-49.74-84-51.2-100.19-48.27-36.84,4.39-36.84,4.39-56-57.06-69.25-60-25.05-13.17-38.31-7.32S377.39,653.62,370,658s-41.26,27.79-48.62,29.26-84,36.57-89.88,38-47.15,8.78-51.57,8.78-48.63-14.63-48.63-14.63h-53L54.7,744.32,42.92,761.88,1660.75,776.5Z" transform="translate(169.34 -120.53)"/><rect class="cls-11" y="627.16" width="2235.11" height="505.28"/><g class="cls-12"><path class="cls-13" d="M680.54,756.2c-18.72,8.48-46.62,6.84-67.22,6.77-37.21-.12-74.47,3-111.75,3.39-34.94.34-69.24,1.48-103.95,3-30.17,1.33-65.5-4.35-93.38,8.51,26.45,7.57,58.23.65,85.89,2,24.65,1.23,48.87,4.46,73.81,3.42,46.64-1.93,90.17,5,136.92,5-12.92-.41-47.25-1.51-60,6.35,29.84,9.46,69.65,2.29,100.71.8,24.46-1.18,74.24,9,94.94-7.49-4.82-25.6-53-24.23-73-18.28" transform="translate(169.34 -120.53)"/><path class="cls-14" d="M58.26,795.13c36,15.5,86.69,2.36,126,6.39,17.6,1.81,35.21,3,53.11,3.76,15.08.64,50.42,5.4,61.27-3.09-15-4.15-31.91-1.45-47.69-2a238.87,238.87,0,0,1-75.06-14.53c20,5.27,64.18-4.28,86.78-9.45-24.87-20.22-89.41-11.48-121.78-11.57C118.84,764.6,78.72,757.43,77,785" transform="translate(169.34 -120.53)"/><path class="cls-15" d="M1435.81,807c17.15,9.12,44.57-.1,63.34-1.35,17.29-1.16,34.42-1.85,51.71-2,39.33-.42,92,6.37,130.06-5.13a479.93,479.93,0,0,0-59.06-3.34c-15.08,0-38.27-5.73-52.25,0,22.32,7.7,74.43-.37,92.81-14.9-42.32-10.42-96.33-.72-139.66,3.09-30.35,2.67-71.25-4.49-98.88,5" transform="translate(169.34 -120.53)"/><path class="cls-16" d="M1943.87,788.36c-42.26-5.69-87.94,5.83-130.86,8.09-34.47,1.81-69.34.38-103.9.38,14.25-.43,20.28,3.14,34.9-1.28,15.63-4.72,29.67-6.13,45.94-8.88-15.24-1.69-35.44.34-50-5.08,28.36-12.64,78.89-5.07,110.16-5.08,14.55,0,99-12.92,92.1,11.85" transform="translate(169.34 -120.53)"/></g><rect class="cls-17" y="700.79" width="2235.11" height="431.65"/><rect class="cls-18" y="700.79" width="2235.11" height="431.65"/><path d="M1720.53,1033.81s22.16-145.57,42.62-147.27,35.8-8.46,42.62-6.77,18.76-49.09,29-76.17,34.1-42.32,44.33-38.93S1920,813.75,1920,813.75v272.53Z" transform="translate(169.34 -120.53)"/><path class="cls-19" d="M1720.53,1033.81s22.16-145.57,42.62-147.27,35.8-8.46,42.62-6.77,18.76-49.09,29-76.17,34.1-42.32,44.33-38.93S1920,813.75,1920,813.75v272.53Z" transform="translate(169.34 -120.53)"/><path d="M404.35,1069.36s-8.52-120.19-27.28-123.57-39.21-8.47-39.21-8.47-3.41-57.55-18.75-64.32-61.38,1.69-69.9,28.78-52.86,115.1-52.86,115.1Z" transform="translate(169.34 -120.53)"/><path class="cls-20" d="M404.35,1069.36s-8.52-120.19-27.28-123.57-39.21-8.47-39.21-8.47-3.41-57.55-18.75-64.32-61.38,1.69-69.9,28.78-52.86,115.1-52.86,115.1Z" transform="translate(169.34 -120.53)"/><path d="M2,1069.36V564.92l34.1,32.16S24.16,702,49.74,715.57s47.73,94.8,47.73,94.8S94.06,888.23,117.93,895c0,0,37.51,10.16,47.73,77.87s13.64,96.49,13.64,96.49Z" transform="translate(169.34 -120.53)"/><path class="cls-21" d="M2,1069.36V564.92l34.1,32.16S24.16,702,49.74,715.57s47.73,94.8,47.73,94.8S94.06,888.23,117.93,895c0,0,37.51,10.16,47.73,77.87s13.64,96.49,13.64,96.49Z" transform="translate(169.34 -120.53)"/><path d="M1721.81,978.37s-15.35-87.6-52.43-128.22c0,0,8.95,92.67,33.25,128.22Z" transform="translate(169.34 -120.53)"/><path d="M1708,988.34s-50.74-73.27-101.5-94.84c0,0,47,80.53,84.06,102.78Z" transform="translate(169.34 -120.53)"/><path d="M301,873.39s-11.75-67-40.13-98.15c0,0,6.85,70.94,25.45,98.15Z" transform="translate(169.34 -120.53)"/><path d="M302.85,877.75s13.39-48.17,4.37-77.65c0,0-17.87,49.22-14.12,73.08Z" transform="translate(169.34 -120.53)"/><path d="M296.82,875.94S258,819.86,219.13,803.35c0,0,36,61.64,64.35,78.67Z" transform="translate(169.34 -120.53)"/><path class="cls-22" d="M1814.3,1025.35c-11.93-33.86,13.64-82.95,30.69-106.65s30.68-55.86,29-106.64a188.78,188.78,0,0,1,4.57-47.51c-10.49-2.73-33.72,12.41-43.79,39.05-10.22,27.08-22.16,77.86-29,76.17s-22.16,5.08-42.62,6.77-42.62,147.27-42.62,147.27l119.94,31.55C1827.92,1051,1818.19,1036.39,1814.3,1025.35Z" transform="translate(169.34 -120.53)"/><path class="cls-23" d="M362.58,1016.83c-5.32,12.1-5.87,26.58-4.05,41l45.82,11.56s-8.52-120.19-27.28-123.57c-5.75-1-11.66-2.24-17.09-3.4C365.83,955.58,376.08,986.17,362.58,1016.83Z" transform="translate(169.34 -120.53)"/><path class="cls-24" d="M302.06,933.93c6.82,20.31,29,3.4,35.8,3.39,0,0-3.41-57.55-18.75-64.32-8.14-3.59-24.9-2.9-40.13,2.59C287.37,895.81,298.13,922.2,302.06,933.93Z" transform="translate(169.34 -120.53)"/><path class="cls-25" d="M49.74,715.57c-6-3.16-9.91-11.32-12.42-22-2.27,16.64-11.18,90,3.9,118.46C58.27,844.22,73.61,908.54,71.9,942.4c-1.37,27.37-5,100.1-6.31,127H179.3s-3.41-28.78-13.64-96.49S117.93,895,117.93,895c-23.87-6.77-20.46-84.63-20.46-84.63S75.31,729.11,49.74,715.57Z" transform="translate(169.34 -120.53)"/></g><path class="cls-26" d="M1301.11,806.23l22.93,1.52s0-135.07-2.29-179.84-20.64-196.53-22.16-203.36.25-11.13.25-11.13l5.86,7.34-1.27,12.9,5.34-9.62-.5,13.41,6.11-7.84-2,12.9,8.15-6.83-1.27,13.15,7.13-6.58.51,12.4s6.12-7.09,6.12-5.57-1.28,13.66-1.28,13.66,7.39-7.33,7.39-6.07.26,11.64.26,11.64,5.86-15.69,6.37-11.13,3.3,22,3.3,22-1-19.22-3-26.56-14.27-27.06-14.27-27.06l-7.39-11.13-5.6-11.13s-5.35-5.31-4.59-5.06,10.7,8.1,10.7,8.1l-7.64-18L1342.64,423l-14.52-32.63,6.62,16.45,4.08-6.33-.52,8.35,5.1-3,.25,10.62,3.57-6.07,2,8.61,6.88-9.87.51,15.18,7.64-13.41s-1.53,12.9-1.79,14.42,7.9-12.9,7.9-12.9.51,13.4.51,15.43,7.65-9.36,7.65-9.36l1.27,10.87,7.39-9.35,8.15,8.85s-2.29-7.59-21.4-22-29.8-23-38.72-28.08-10.19-7.09-10.19-7.09,5.35-3.79,9.43-3.79,3.56-5.82,3.56-5.82l7.64,7.34-1.53-5.31,4.34,3.79v-6.32l5.86,6.83,1.78-4.56,8.41,8.86-1-7.34,11,8.85-.51-6.83,8.41,8.1-1-6.32,9.94,5.31s-4.34-13.15-21.91-16.69a74.37,74.37,0,0,0-31.85.5v-2.53l6.88-3.54-2-4.56s9.94.76,9.17.51-11-8.35-9.93-8.09,23.69,1.77,22.93,1.77-11.22-4.81-8.41-4,19.62,4,18.85,3.79-9.43-4.8-5.86-3.79,18.34,3.79,15.29,2.28-15.54-4.55-6.37-3.54,10.7,2.27,9.17,1-6.37-3.29-2.29-2.28,9.42.5,7.9.25,5.34-.75,5.34-.75-10.44-5.32-15.79-5.32-18.09,1-20.38,1.78-17.58,6.32-24.71,11.63-11,5.31-11,5.31l-2.54-3,4.58-11.88-4.58-1.52,8.91-3.54-4.58-2s11.71-3.8,9.93-4.05-11.46-3.55-10.19-3.29,9.43-3.79,9.43-3.79-8.15-2.28-6.63-2,11.47-3.54,11.47-3.54l-8.92-5.56,7.39-2s-4.07-4.3-1.53-3.79,12.74-1,12.74-1-7.13-4.05-5.86-3.8,7.38-3.54,7.38-3.54-10.44-2.53-13.75-1-16.56,3-20.89,11.89-11.46,19.22-12.48,23.27a10.52,10.52,0,0,1-4.84,6.07,41.77,41.77,0,0,1-1.28-4.81c0-.75-.25-8.6-.25-8.6s-1.27-5.81-1-6.57-1.78-6.58-1.78-6.58-5.1-10.62-4.33-10.37-5.1-10.12-5.1-10.12l-6.62-3.28-7.14,5.31-.25,6.83,7.89-1.77-5.34,4,3.82,1-5.09,5.32,3.82.75s-4.59,4.05-3.57,4.31,5.09,1,4.84,1.77-1.27,5.81-1.27,5.81l4.32-.25-6.11,6.32,3.32,2.53s-.77,4.55.5,4.81-.5,1.52-1.27,3.29.51,5.06,1,5.81-2,2.53-3.06.51,2.81-.25-7.64-13.91a148.21,148.21,0,0,0-23.44-23.78s-12-.75-10.44-.5,1,4.3,2.29,5.05,8.91,7.59,7.13,7.34-8.15-3-5.09-1.27,11.46,6.83,10.44,6.83-7.9-.75-6.62,0,7.38,6.83,7.38,6.83l-1.27.76s9.43,4.81,8.66,4.81h-4.33l6.63,7.33-2.55.76,5.86,5.82s-2.8,0-1,1.52,4.84,4.8,4.84,4.8l-2,3.29s-23.43-15.43-34.64-19-21.91-4.05-31.59,1.77-11.47,7.34-11.47,7.34l22.17-3.54-5.61,4.3,10.19-2.53s-3.82,4.3-2.29,4.3,7.64-2,7.64-2-1.28,3.55.51,3.55,8.92-3.29,8.92-3.29l-2.81,4.55,10.45-1.26-.26,4s6.88-1.52,6.63-.76-3.31,3.8-1.79,4.05,7.14-.51,7.14-.51l-.77,2.53,5.1-.5-.77,3,7.39-1-1.53,3.79s-17.06-4.3-28.27-2.27-25.22,7.33-25.22,7.33-6.88,5.06-7.9,6.33-4.33,5.06-4.33,5.06l8.4-2.79v2.53l11.21-3.79s-5.6,4.05-3.82,4.05,21.15-7.34,21.15-7.34l-4.84,3.79,12.22-2.27-1,3.29,8.16-1.52s-26.24,1.26-31.34,6.57-13.76,10.63-13.76,10.63l-3.31,4.05,7.9-1.52,1,2.53,8.41-7.08s-.77,4.8-.51,5.56,9.17-4.8,9.17-4.8l-.76,2.52,13-9.1a53.7,53.7,0,0,1-.26,6.07c-.25.76,3.57-2.27,4.84-2.53s-1,5.57,2.3,3,11.46-7.09,11.46-7.09l.25,2.78h13s-19.88,11.64-27,16.95-17.83,14.92-18.34,16.44-4.84,7.34-6.11,9.36-9.43,18.47-9.43,18.47l-1.78,4.8,12.22-7.34,2,4.56,5.35-14.42,4.59,7.84,5.35-12.65,3.31,2.53,1-12.64s2.55,2.28,2.8,0,6.62-7.84,6.62-7.84,3.31.25,4.59.25,6.62-3.29,6.62-3.29l7.65,1s-18.86,4.3-21.91,9.87-.26,14.42-.26,14.42,12.74-12.4,12.74-9.62a21.68,21.68,0,0,1-.51,4.81l6.37-4.81,3.82-1.26,6.62-6.07a42.43,42.43,0,0,0-8.15,19.22c-1.78,11.64-1.78,24.79-1.53,25.8s4.59,11.13,4.59,11.13l-2.55-19s5.35,11.89,5.61,11.13-2.3-16.95-1.53-16.95,3,4.81,3,4.81l.51-18.21s6.12,12.39,5.61,11.13.25-12.65.25-12.65,3.57,6.82,4.33,4.05,2.3-13.66,2.3-13.66l2.55,4.8-.26-13.65,6.88,6.32s5.61,47.56,6.37,60.2,7.38,129.25,8.91,161.88-3,92.32-3,113.82S1301.11,806.23,1301.11,806.23Z" transform="translate(169.34 -120.53)"/><path class="cls-27" d="M1301.11,806.23l22.93,1.52s0-135.07-2.29-179.84-20.64-196.53-22.16-203.36.25-11.13.25-11.13l5.86,7.34-1.27,12.9,5.34-9.62-.5,13.41,6.11-7.84-2,12.9,8.15-6.83-1.27,13.15,7.13-6.58.51,12.4s6.12-7.09,6.12-5.57-1.28,13.66-1.28,13.66,7.39-7.33,7.39-6.07.26,11.64.26,11.64,5.86-15.69,6.37-11.13,3.3,22,3.3,22-1-19.22-3-26.56-14.27-27.06-14.27-27.06l-7.39-11.13-5.6-11.13s-5.35-5.31-4.59-5.06,10.7,8.1,10.7,8.1l-7.64-18L1342.64,423l-14.52-32.63,6.62,16.45,4.08-6.33-.52,8.35,5.1-3,.25,10.62,3.57-6.07,2,8.61,6.88-9.87.51,15.18,7.64-13.41s-1.53,12.9-1.79,14.42,7.9-12.9,7.9-12.9.51,13.4.51,15.43,7.65-9.36,7.65-9.36l1.27,10.87,7.39-9.35,8.15,8.85s-2.29-7.59-21.4-22-29.8-23-38.72-28.08-10.19-7.09-10.19-7.09,5.35-3.79,9.43-3.79,3.56-5.82,3.56-5.82l7.64,7.34-1.53-5.31,4.34,3.79v-6.32l5.86,6.83,1.78-4.56,8.41,8.86-1-7.34,11,8.85-.51-6.83,8.41,8.1-1-6.32,9.94,5.31s-4.34-13.15-21.91-16.69a74.37,74.37,0,0,0-31.85.5v-2.53l6.88-3.54-2-4.56s9.94.76,9.17.51-11-8.35-9.93-8.09,23.69,1.77,22.93,1.77-11.22-4.81-8.41-4,19.62,4,18.85,3.79-9.43-4.8-5.86-3.79,18.34,3.79,15.29,2.28-15.54-4.55-6.37-3.54,10.7,2.27,9.17,1-6.37-3.29-2.29-2.28,9.42.5,7.9.25,5.34-.75,5.34-.75-10.44-5.32-15.79-5.32-18.09,1-20.38,1.78-17.58,6.32-24.71,11.63-11,5.31-11,5.31l-2.54-3,4.58-11.88-4.58-1.52,8.91-3.54-4.58-2s11.71-3.8,9.93-4.05-11.46-3.55-10.19-3.29,9.43-3.79,9.43-3.79-8.15-2.28-6.63-2,11.47-3.54,11.47-3.54l-8.92-5.56,7.39-2s-4.07-4.3-1.53-3.79,12.74-1,12.74-1-7.13-4.05-5.86-3.8,7.38-3.54,7.38-3.54-10.44-2.53-13.75-1-16.56,3-20.89,11.89-11.46,19.22-12.48,23.27a10.52,10.52,0,0,1-4.84,6.07,41.77,41.77,0,0,1-1.28-4.81c0-.75-.25-8.6-.25-8.6s-1.27-5.81-1-6.57-1.78-6.58-1.78-6.58-5.1-10.62-4.33-10.37-5.1-10.12-5.1-10.12l-6.62-3.28-7.14,5.31-.25,6.83,7.89-1.77-5.34,4,3.82,1-5.09,5.32,3.82.75s-4.59,4.05-3.57,4.31,5.09,1,4.84,1.77-1.27,5.81-1.27,5.81l4.32-.25-6.11,6.32,3.32,2.53s-.77,4.55.5,4.81-.5,1.52-1.27,3.29.51,5.06,1,5.81-2,2.53-3.06.51,2.81-.25-7.64-13.91a148.21,148.21,0,0,0-23.44-23.78s-12-.75-10.44-.5,1,4.3,2.29,5.05,8.91,7.59,7.13,7.34-8.15-3-5.09-1.27,11.46,6.83,10.44,6.83-7.9-.75-6.62,0,7.38,6.83,7.38,6.83l-1.27.76s9.43,4.81,8.66,4.81h-4.33l6.63,7.33-2.55.76,5.86,5.82s-2.8,0-1,1.52,4.84,4.8,4.84,4.8l-2,3.29s-23.43-15.43-34.64-19-21.91-4.05-31.59,1.77-11.47,7.34-11.47,7.34l22.17-3.54-5.61,4.3,10.19-2.53s-3.82,4.3-2.29,4.3,7.64-2,7.64-2-1.28,3.55.51,3.55,8.92-3.29,8.92-3.29l-2.81,4.55,10.45-1.26-.26,4s6.88-1.52,6.63-.76-3.31,3.8-1.79,4.05,7.14-.51,7.14-.51l-.77,2.53,5.1-.5-.77,3,7.39-1-1.53,3.79s-17.06-4.3-28.27-2.27-25.22,7.33-25.22,7.33-6.88,5.06-7.9,6.33-4.33,5.06-4.33,5.06l8.4-2.79v2.53l11.21-3.79s-5.6,4.05-3.82,4.05,21.15-7.34,21.15-7.34l-4.84,3.79,12.22-2.27-1,3.29,8.16-1.52s-26.24,1.26-31.34,6.57-13.76,10.63-13.76,10.63l-3.31,4.05,7.9-1.52,1,2.53,8.41-7.08s-.77,4.8-.51,5.56,9.17-4.8,9.17-4.8l-.76,2.52,13-9.1a53.7,53.7,0,0,1-.26,6.07c-.25.76,3.57-2.27,4.84-2.53s-1,5.57,2.3,3,11.46-7.09,11.46-7.09l.25,2.78h13s-19.88,11.64-27,16.95-17.83,14.92-18.34,16.44-4.84,7.34-6.11,9.36-9.43,18.47-9.43,18.47l-1.78,4.8,12.22-7.34,2,4.56,5.35-14.42,4.59,7.84,5.35-12.65,3.31,2.53,1-12.64s2.55,2.28,2.8,0,6.62-7.84,6.62-7.84,3.31.25,4.59.25,6.62-3.29,6.62-3.29l7.65,1s-18.86,4.3-21.91,9.87-.26,14.42-.26,14.42,12.74-12.4,12.74-9.62a21.68,21.68,0,0,1-.51,4.81l6.37-4.81,3.82-1.26,6.62-6.07a42.43,42.43,0,0,0-8.15,19.22c-1.78,11.64-1.78,24.79-1.53,25.8s4.59,11.13,4.59,11.13l-2.55-19s5.35,11.89,5.61,11.13-2.3-16.95-1.53-16.95,3,4.81,3,4.81l.51-18.21s6.12,12.39,5.61,11.13.25-12.65.25-12.65,3.57,6.82,4.33,4.05,2.3-13.66,2.3-13.66l2.55,4.8-.26-13.65,6.88,6.32s5.61,47.56,6.37,60.2,7.38,129.25,8.91,161.88-3,92.32-3,113.82S1301.11,806.23,1301.11,806.23Z" transform="translate(169.34 -120.53)"/><path class="cls-26" d="M1776.74,821.36l-22.77,3s-3.16-67.87-3.87-112.68,7.42-197.47,8.49-204.38-1-11.09-1-11.09l-5.36,7.71,2.14,12.78-6-9.24,1.4,13.34-6.62-7.41,2.9,12.73-8.6-6.27,2.16,13-7.56-6.1.32,12.4s-6.58-6.66-6.47-5.14,2.19,13.54,2.19,13.54-7.87-6.83-7.78-5.57.52,11.63.52,11.63-6.9-15.26-7.1-10.68-1.83,22.17-1.83,22.17-.27-19.25,1.27-26.7,12.42-28,12.42-28l6.63-11.59,4.85-11.47s5-5.66,4.23-5.36-10.13,8.79-10.13,8.79l6.42-18.43-22.08,36.2,12.3-33.52-5.5,16.84-4.5-6,1.07,8.29-5.29-2.69.47,10.62-4-5.82-1.46,8.72-7.53-9.39.52,15.17L1693.11,498s2.39,12.77,2.75,14.27-8.75-12.35-8.75-12.35.39,13.41.53,15.43-8.26-8.84-8.26-8.84l-.54,10.94-8-8.85-7.54,9.37s1.78-7.72,19.88-23.37,28.2-24.94,36.76-30.57,9.69-7.74,9.69-7.74-5.6-3.43-9.66-3.16-4-5.57-4-5.57l-7.13,7.82,1.17-5.4L1706,454l-.43-6.31-5.38,7.2-2.09-4.42-7.79,9.39.52-7.39-10.34,9.56.06-6.85-7.85,8.63.59-6.37-9.56,6s3.45-13.41,20.75-18.1a74.32,74.32,0,0,1,31.8-1.6l-.17-2.53-7.1-3.08,1.73-4.67s-9.86,1.41-9.11,1.11,10.36-9.06,9.37-8.73-23.52,3.33-22.76,3.28,10.86-5.54,8.11-4.6-19.3,5.34-18.56,5,9.09-5.42,5.6-4.17-18.05,5-15.1,3.28,15.2-5.56,6.12-3.95-10.53,3-9.08,1.62,6.13-3.71,2.13-2.43-9.37,1.13-7.86.78-5.39-.41-5.39-.41,10.07-6,15.4-6.34,18.12-.19,20.46.42,18,5.15,25.44,10,11.28,4.57,11.28,4.57l2.34-3.19-5.38-11.56,4.48-1.82-9.13-2.95,4.44-2.32s-12-3-10.19-3.38,11.21-4.29,10-3.95-9.66-3.17-9.66-3.17,8-2.8,6.47-2.45-11.67-2.78-11.67-2.78l8.52-6.14-7.51-1.53s3.78-4.56,1.27-3.89-12.77-.16-12.77-.16,6.84-4.51,5.59-4.18-7.61-3-7.61-3,10.26-3.22,13.66-1.92,16.72,1.93,21.64,10.48,12.72,18.42,14,22.39a10.53,10.53,0,0,0,5.24,5.74,41.92,41.92,0,0,0,1-4.88c-.05-.75-.32-8.6-.32-8.6s.88-5.88.57-6.62,1.34-6.68,1.34-6.68,4.37-10.94,3.63-10.64,4.41-10.43,4.41-10.43l6.38-3.72,7.47,4.83.72,6.8-8-1.25,5.61,3.69-3.75,1.26,5.44,5-3.76,1s4.85,3.74,3.85,4.06-5,1.34-4.71,2.08,1.65,5.73,1.65,5.73l-4.33,0,6.52,5.9-3.13,2.75s1.07,4.49-.19,4.82.61,1.49,1.49,3.2-.16,5.08-.62,5.87,2.2,2.39,3.08.31-2.82-.07,6.69-14.39a147.65,147.65,0,0,1,21.8-25.27s11.89-1.55,10.38-1.19-.73,4.35-1.94,5.19-8.39,8.16-6.63,7.79,7.93-3.57,5-1.6-11,7.58-10,7.51,7.83-1.28,6.61-.44-6.92,7.3-6.92,7.3l1.32.68s-9.08,5.42-8.32,5.37l4.32-.29L1791,416l2.6.58-5.46,6.2s2.79-.19,1.12,1.44-4.51,5.12-4.51,5.12l2.26,3.14s22.35-16.94,33.3-21.21,21.58-5.49,31.63-.32,11.93,6.56,11.93,6.56l-22.35-2.07,5.88,3.92-10.34-1.85s4.1,4,2.58,4.14-7.76-1.52-7.76-1.52,1.51,3.45-.27,3.57-9.12-2.69-9.12-2.69l3.1,4.36-10.51-.57.53,4s-7-1.06-6.66-.31,3.56,3.56,2,3.92-7.15,0-7.15,0l.94,2.47-5.13-.16,1,3-7.45-.53,1.78,3.69s16.74-5.42,28.06-4.14,25.66,5.65,25.66,5.65,7.2,4.59,8.31,5.79,4.65,4.76,4.65,4.76l-8.57-2.22.17,2.53-11.44-3s5.87,3.67,4.08,3.78S1824.3,448,1824.3,448l5.09,3.47L1817,450l1.24,3.21-8.23-1s26.26-.48,31.7,4.48,14.44,9.69,14.44,9.69l3.58,3.82-8-1-.84,2.59-8.86-6.51s1.08,4.75.88,5.52-9.48-4.19-9.48-4.19l.93,2.47-13.57-8.22a56,56,0,0,0,.66,6c.31.74-3.71-2-5-2.21s1.39,5.49-2.08,3.19-11.92-6.32-11.92-6.32l-.06,2.8-13,.86s20.6,10.29,28.08,15.12,18.79,13.72,19.4,15.19,5.32,7,6.73,8.94,10.64,17.8,10.64,17.8l2.1,4.68-12.69-6.51-1.73,4.67-6.3-14-4,8.13L1825.46,507l-3.14,2.74-1.86-12.54s-2.39,2.43-2.8.18-7.13-7.39-7.13-7.39-3.29.48-4.56.56-6.83-2.85-6.83-2.85l-7.56,1.52s19.1,3.05,22.53,8.39,1.22,14.37,1.22,14.37-13.55-11.52-13.36-8.75a21.92,21.92,0,0,0,.83,4.76l-6.67-4.37-3.9-1-7-5.62a42.39,42.39,0,0,1,9.42,18.64c2.56,11.49,3.45,24.62,3.26,25.65s-3.83,11.4-3.83,11.4l1.27-19.09s-4.54,12.21-4.85,11.47,1.16-17.06.39-17-2.72,5-2.72,5l-1.74-18.14s-5.26,12.77-4.84,11.48-1.1-12.61-1.1-12.61-3.1,7-4,4.33-3.21-13.48-3.21-13.48l-2.22,5-.66-13.65-6.44,6.76s-2.4,47.83-2.32,60.49,1.3,129.45,2,162.11,3.33,25,4.78,46.47S1776.74,821.36,1776.74,821.36Z" transform="translate(169.34 -120.53)"/><path class="cls-28" d="M1776.74,821.36l-22.77,3s-3.16-67.87-3.87-112.68,7.42-197.47,8.49-204.38-1-11.09-1-11.09l-5.36,7.71,2.14,12.78-6-9.24,1.4,13.34-6.62-7.41,2.9,12.73-8.6-6.27,2.16,13-7.56-6.1.32,12.4s-6.58-6.66-6.47-5.14,2.19,13.54,2.19,13.54-7.87-6.83-7.78-5.57.52,11.63.52,11.63-6.9-15.26-7.1-10.68-1.83,22.17-1.83,22.17-.27-19.25,1.27-26.7,12.42-28,12.42-28l6.63-11.59,4.85-11.47s5-5.66,4.23-5.36-10.13,8.79-10.13,8.79l6.42-18.43-22.08,36.2,12.3-33.52-5.5,16.84-4.5-6,1.07,8.29-5.29-2.69.47,10.62-4-5.82-1.46,8.72-7.53-9.39.52,15.17L1693.11,498s2.39,12.77,2.75,14.27-8.75-12.35-8.75-12.35.39,13.41.53,15.43-8.26-8.84-8.26-8.84l-.54,10.94-8-8.85-7.54,9.37s1.78-7.72,19.88-23.37,28.2-24.94,36.76-30.57,9.69-7.74,9.69-7.74-5.6-3.43-9.66-3.16-4-5.57-4-5.57l-7.13,7.82,1.17-5.4L1706,454l-.43-6.31-5.38,7.2-2.09-4.42-7.79,9.39.52-7.39-10.34,9.56.06-6.85-7.85,8.63.59-6.37-9.56,6s3.45-13.41,20.75-18.1a74.32,74.32,0,0,1,31.8-1.6l-.17-2.53-7.1-3.08,1.73-4.67s-9.86,1.41-9.11,1.11,10.36-9.06,9.37-8.73-23.52,3.33-22.76,3.28,10.86-5.54,8.11-4.6-19.3,5.34-18.56,5,9.09-5.42,5.6-4.17-18.05,5-15.1,3.28,15.2-5.56,6.12-3.95-10.53,3-9.08,1.62,6.13-3.71,2.13-2.43-9.37,1.13-7.86.78-5.39-.41-5.39-.41,10.07-6,15.4-6.34,18.12-.19,20.46.42,18,5.15,25.44,10,11.28,4.57,11.28,4.57l2.34-3.19-5.38-11.56,4.48-1.82-9.13-2.95,4.44-2.32s-12-3-10.19-3.38,11.21-4.29,10-3.95-9.66-3.17-9.66-3.17,8-2.8,6.47-2.45-11.67-2.78-11.67-2.78l8.52-6.14-7.51-1.53s3.78-4.56,1.27-3.89-12.77-.16-12.77-.16,6.84-4.51,5.59-4.18-7.61-3-7.61-3,10.26-3.22,13.66-1.92,16.72,1.93,21.64,10.48,12.72,18.42,14,22.39a10.53,10.53,0,0,0,5.24,5.74,41.92,41.92,0,0,0,1-4.88c-.05-.75-.32-8.6-.32-8.6s.88-5.88.57-6.62,1.34-6.68,1.34-6.68,4.37-10.94,3.63-10.64,4.41-10.43,4.41-10.43l6.38-3.72,7.47,4.83.72,6.8-8-1.25,5.61,3.69-3.75,1.26,5.44,5-3.76,1s4.85,3.74,3.85,4.06-5,1.34-4.71,2.08,1.65,5.73,1.65,5.73l-4.33,0,6.52,5.9-3.13,2.75s1.07,4.49-.19,4.82.61,1.49,1.49,3.2-.16,5.08-.62,5.87,2.2,2.39,3.08.31-2.82-.07,6.69-14.39a147.65,147.65,0,0,1,21.8-25.27s11.89-1.55,10.38-1.19-.73,4.35-1.94,5.19-8.39,8.16-6.63,7.79,7.93-3.57,5-1.6-11,7.58-10,7.51,7.83-1.28,6.61-.44-6.92,7.3-6.92,7.3l1.32.68s-9.08,5.42-8.32,5.37l4.32-.29L1791,416l2.6.58-5.46,6.2s2.79-.19,1.12,1.44-4.51,5.12-4.51,5.12l2.26,3.14s22.35-16.94,33.3-21.21,21.58-5.49,31.63-.32,11.93,6.56,11.93,6.56l-22.35-2.07,5.88,3.92-10.34-1.85s4.1,4,2.58,4.14-7.76-1.52-7.76-1.52,1.51,3.45-.27,3.57-9.12-2.69-9.12-2.69l3.1,4.36-10.51-.57.53,4s-7-1.06-6.66-.31,3.56,3.56,2,3.92-7.15,0-7.15,0l.94,2.47-5.13-.16,1,3-7.45-.53,1.78,3.69s16.74-5.42,28.06-4.14,25.66,5.65,25.66,5.65,7.2,4.59,8.31,5.79,4.65,4.76,4.65,4.76l-8.57-2.22.17,2.53-11.44-3s5.87,3.67,4.08,3.78S1824.3,448,1824.3,448l5.09,3.47L1817,450l1.24,3.21-8.23-1s26.26-.48,31.7,4.48,14.44,9.69,14.44,9.69l3.58,3.82-8-1-.84,2.59-8.86-6.51s1.08,4.75.88,5.52-9.48-4.19-9.48-4.19l.93,2.47-13.57-8.22a56,56,0,0,0,.66,6c.31.74-3.71-2-5-2.21s1.39,5.49-2.08,3.19-11.92-6.32-11.92-6.32l-.06,2.8-13,.86s20.6,10.29,28.08,15.12,18.79,13.72,19.4,15.19,5.32,7,6.73,8.94,10.64,17.8,10.64,17.8l2.1,4.68-12.69-6.51-1.73,4.67-6.3-14-4,8.13L1825.46,507l-3.14,2.74-1.86-12.54s-2.39,2.43-2.8.18-7.13-7.39-7.13-7.39-3.29.48-4.56.56-6.83-2.85-6.83-2.85l-7.56,1.52s19.1,3.05,22.53,8.39,1.22,14.37,1.22,14.37-13.55-11.52-13.36-8.75a21.92,21.92,0,0,0,.83,4.76l-6.67-4.37-3.9-1-7-5.62a42.39,42.39,0,0,1,9.42,18.64c2.56,11.49,3.45,24.62,3.26,25.65s-3.83,11.4-3.83,11.4l1.27-19.09s-4.54,12.21-4.85,11.47,1.16-17.06.39-17-2.72,5-2.72,5l-1.74-18.14s-5.26,12.77-4.84,11.48-1.1-12.61-1.1-12.61-3.1,7-4,4.33-3.21-13.48-3.21-13.48l-2.22,5-.66-13.65-6.44,6.76s-2.4,47.83-2.32,60.49,1.3,129.45,2,162.11,3.33,25,4.78,46.47S1776.74,821.36,1776.74,821.36Z" transform="translate(169.34 -120.53)"/><path class="cls-26" d="M404.36,823.91h21.31s-.52-130.92-2.82-175.68-20.63-196.54-22.16-203.37.25-11.13.25-11.13l5.86,7.34L405.53,454l5.35-9.61-.51,13.4,6.12-7.84-2,12.9L422.6,456l-1.27,13.16,7.13-6.58L429,475s6.11-7.08,6.11-5.56-1.27,13.65-1.27,13.65,7.39-7.33,7.39-6.06.25,11.63.25,11.63,5.86-15.68,6.37-11.13,3.31,22,3.31,22-1-19.23-3.06-26.56-14.26-27.07-14.26-27.07l-7.39-11.12-5.61-11.13s-5.35-5.32-4.58-5.06,10.7,8.09,10.7,8.09l-7.65-18,24.46,34.66-14.52-32.63,6.62,16.44,4.08-6.33-.51,8.35,5.1-3,.25,10.63,3.57-6.07,2,8.6,6.88-9.87.5,15.18,7.64-13.41s-1.52,12.9-1.78,14.42,7.9-12.9,7.9-12.9.51,13.4.51,15.43,7.64-9.36,7.64-9.36l1.28,10.88,7.38-9.36,8.16,8.85s-2.3-7.58-21.4-22-29.81-23-38.73-28.08S426.16,392,426.16,392s5.36-3.8,9.43-3.8,3.57-5.82,3.57-5.82l7.64,7.34-1.53-5.31,4.33,3.79v-6.32l5.86,6.83,1.79-4.55,8.4,8.85-1-7.34,11,8.86-.51-6.83,8.4,8.09-1-6.32,9.94,5.31s-4.33-13.15-21.91-16.69a74.51,74.51,0,0,0-31.84.5v-2.53l6.88-3.54-2-4.55s9.93.76,9.17.5-11-8.35-9.94-8.09,23.7,1.77,22.93,1.77-11.21-4.81-8.4-4,19.61,4,18.85,3.8-9.43-4.81-5.86-3.8,18.34,3.8,15.28,2.28-15.54-4.55-6.36-3.54,10.69,2.28,9.17,1-6.37-3.29-2.3-2.28,9.43.51,7.9.26,5.35-.76,5.35-.76-10.45-5.31-15.8-5.31-18.08,1-20.38,1.77-17.58,6.32-24.71,11.63-10.95,5.31-10.95,5.31l-2.55-3,4.59-11.89L424.89,352l8.92-3.54-4.59-2s11.72-3.79,9.94-4.05-11.47-3.54-10.19-3.29,9.42-3.79,9.42-3.79-8.15-2.28-6.62-2,11.46-3.54,11.46-3.54l-8.91-5.57,7.39-2s-4.08-4.3-1.53-3.8,12.73-1,12.73-1-7.13-4-5.85-3.79,7.38-3.54,7.38-3.54-10.45-2.53-13.75-1-16.56,3-20.9,11.89-11.46,19.23-12.48,23.27a10.48,10.48,0,0,1-4.84,6.07,41.79,41.79,0,0,1-1.27-4.8c0-.76-.26-8.6-.26-8.6s-1.27-5.82-1-6.58-1.79-6.58-1.79-6.58-5.09-10.62-4.33-10.37-5.1-10.11-5.1-10.11l-6.62-3.29L375,305.24l-.26,6.83,7.9-1.77-5.35,4.05,3.82,1L376,320.67l3.82.76s-4.58,4.05-3.57,4.3,5.1,1,4.84,1.77-1.27,5.82-1.27,5.82l4.33-.26L378,339.39l3.31,2.53s-.77,4.55.51,4.8-.51,1.52-1.27,3.29.5,5.06,1,5.82-2,2.53-3.05.5,2.8-.25-7.65-13.91a147.6,147.6,0,0,0-23.43-23.77s-12-.76-10.45-.51,1,4.3,2.29,5.06,8.92,7.59,7.14,7.33-8.16-3-5.1-1.26,11.46,6.83,10.45,6.83-7.9-.76-6.63,0,7.39,6.83,7.39,6.83l-1.27.76s9.42,4.8,8.66,4.8H355.6l6.62,7.34-2.55.75,5.86,5.82s-2.8,0-1,1.52,4.83,4.81,4.83,4.81l-2,3.29s-23.43-15.43-34.64-19-21.91-4.05-31.59,1.77-11.46,7.33-11.46,7.33l22.16-3.54-5.6,4.3,10.19-2.53s-3.82,4.3-2.3,4.3,7.65-2,7.65-2-1.28,3.54.5,3.54,8.92-3.29,8.92-3.29l-2.8,4.55,10.44-1.26-.25,4s6.88-1.51,6.62-.75-3.31,3.79-1.78,4,7.13-.5,7.13-.5l-.76,2.53,5.09-.51-.76,3,7.39-1-1.53,3.8s-17.07-4.3-28.28-2.28-25.22,7.34-25.22,7.34-6.88,5.05-7.9,6.32-4.33,5.06-4.33,5.06l8.41-2.78v2.53l11.21-3.8s-5.61,4.05-3.82,4.05S331.14,390,331.14,390l-4.84,3.8,12.23-2.28-1,3.29,8.15-1.52s-26.24,1.27-31.33,6.58-13.76,10.62-13.76,10.62l-3.31,4.05,7.9-1.52,1,2.53,8.4-7.08s-.76,4.8-.51,5.56,9.18-4.8,9.18-4.8l-.77,2.53,13-9.11a55.83,55.83,0,0,1-.25,6.07c-.26.76,3.57-2.27,4.84-2.53s-1,5.57,2.29,3,11.47-7.09,11.47-7.09l.25,2.79h13s-19.87,11.63-27,16.94-17.84,14.93-18.35,16.45-4.84,7.33-6.11,9.35-9.42,18.47-9.42,18.47l-1.79,4.8,12.23-7.33,2,4.55L324,453.71l4.58,7.85,5.35-12.65,3.32,2.53,1-12.65s2.55,2.28,2.81,0S347.7,431,347.7,431s3.31.25,4.59.25,6.62-3.29,6.62-3.29l7.64,1s-18.85,4.3-21.91,9.86-.25,14.42-.25,14.42,12.74-12.4,12.74-9.61a21.64,21.64,0,0,1-.51,4.8l6.36-4.8,3.82-1.27,6.63-6.07a42.43,42.43,0,0,0-8.15,19.23c-1.79,11.63-1.79,24.78-1.53,25.8s4.58,11.12,4.58,11.12l-2.54-19s5.34,11.89,5.6,11.13-2.29-16.94-1.53-16.94,3.06,4.8,3.06,4.8l.51-18.21s6.11,12.4,5.6,11.13.26-12.65.26-12.65,3.57,6.83,4.33,4.05,2.29-13.66,2.29-13.66l2.55,4.81-.25-13.66,6.87,6.32s5.61,47.56,6.37,60.2,7.39,129.25,8.92,161.88-3.06,92.32-3.06,113.82S404.36,823.91,404.36,823.91Z" transform="translate(169.34 -120.53)"/><path class="cls-29" d="M404.36,823.91h21.31s-.52-130.92-2.82-175.68-20.63-196.54-22.16-203.37.25-11.13.25-11.13l5.86,7.34L405.53,454l5.35-9.61-.51,13.4,6.12-7.84-2,12.9L422.6,456l-1.27,13.16,7.13-6.58L429,475s6.11-7.08,6.11-5.56-1.27,13.65-1.27,13.65,7.39-7.33,7.39-6.06.25,11.63.25,11.63,5.86-15.68,6.37-11.13,3.31,22,3.31,22-1-19.23-3.06-26.56-14.26-27.07-14.26-27.07l-7.39-11.12-5.61-11.13s-5.35-5.32-4.58-5.06,10.7,8.09,10.7,8.09l-7.65-18,24.46,34.66-14.52-32.63,6.62,16.44,4.08-6.33-.51,8.35,5.1-3,.25,10.63,3.57-6.07,2,8.6,6.88-9.87.5,15.18,7.64-13.41s-1.52,12.9-1.78,14.42,7.9-12.9,7.9-12.9.51,13.4.51,15.43,7.64-9.36,7.64-9.36l1.28,10.88,7.38-9.36,8.16,8.85s-2.3-7.58-21.4-22-29.81-23-38.73-28.08S426.16,392,426.16,392s5.36-3.8,9.43-3.8,3.57-5.82,3.57-5.82l7.64,7.34-1.53-5.31,4.33,3.79v-6.32l5.86,6.83,1.79-4.55,8.4,8.85-1-7.34,11,8.86-.51-6.83,8.4,8.09-1-6.32,9.94,5.31s-4.33-13.15-21.91-16.69a74.51,74.51,0,0,0-31.84.5v-2.53l6.88-3.54-2-4.55s9.93.76,9.17.5-11-8.35-9.94-8.09,23.7,1.77,22.93,1.77-11.21-4.81-8.4-4,19.61,4,18.85,3.8-9.43-4.81-5.86-3.8,18.34,3.8,15.28,2.28-15.54-4.55-6.36-3.54,10.69,2.28,9.17,1-6.37-3.29-2.3-2.28,9.43.51,7.9.26,5.35-.76,5.35-.76-10.45-5.31-15.8-5.31-18.08,1-20.38,1.77-17.58,6.32-24.71,11.63-10.95,5.31-10.95,5.31l-2.55-3,4.59-11.89L424.89,352l8.92-3.54-4.59-2s11.72-3.79,9.94-4.05-11.47-3.54-10.19-3.29,9.42-3.79,9.42-3.79-8.15-2.28-6.62-2,11.46-3.54,11.46-3.54l-8.91-5.57,7.39-2s-4.08-4.3-1.53-3.8,12.73-1,12.73-1-7.13-4-5.85-3.79,7.38-3.54,7.38-3.54-10.45-2.53-13.75-1-16.56,3-20.9,11.89-11.46,19.23-12.48,23.27a10.48,10.48,0,0,1-4.84,6.07,41.79,41.79,0,0,1-1.27-4.8c0-.76-.26-8.6-.26-8.6s-1.27-5.82-1-6.58-1.79-6.58-1.79-6.58-5.09-10.62-4.33-10.37-5.1-10.11-5.1-10.11l-6.62-3.29L375,305.24l-.26,6.83,7.9-1.77-5.35,4.05,3.82,1L376,320.67l3.82.76s-4.58,4.05-3.57,4.3,5.1,1,4.84,1.77-1.27,5.82-1.27,5.82l4.33-.26L378,339.39l3.31,2.53s-.77,4.55.51,4.8-.51,1.52-1.27,3.29.5,5.06,1,5.82-2,2.53-3.05.5,2.8-.25-7.65-13.91a147.6,147.6,0,0,0-23.43-23.77s-12-.76-10.45-.51,1,4.3,2.29,5.06,8.92,7.59,7.14,7.33-8.16-3-5.1-1.26,11.46,6.83,10.45,6.83-7.9-.76-6.63,0,7.39,6.83,7.39,6.83l-1.27.76s9.42,4.8,8.66,4.8H355.6l6.62,7.34-2.55.75,5.86,5.82s-2.8,0-1,1.52,4.83,4.81,4.83,4.81l-2,3.29s-23.43-15.43-34.64-19-21.91-4.05-31.59,1.77-11.46,7.33-11.46,7.33l22.16-3.54-5.6,4.3,10.19-2.53s-3.82,4.3-2.3,4.3,7.65-2,7.65-2-1.28,3.54.5,3.54,8.92-3.29,8.92-3.29l-2.8,4.55,10.44-1.26-.25,4s6.88-1.51,6.62-.75-3.31,3.79-1.78,4,7.13-.5,7.13-.5l-.76,2.53,5.09-.51-.76,3,7.39-1-1.53,3.8s-17.07-4.3-28.28-2.28-25.22,7.34-25.22,7.34-6.88,5.05-7.9,6.32-4.33,5.06-4.33,5.06l8.41-2.78v2.53l11.21-3.8s-5.61,4.05-3.82,4.05S331.14,390,331.14,390l-4.84,3.8,12.23-2.28-1,3.29,8.15-1.52s-26.24,1.27-31.33,6.58-13.76,10.62-13.76,10.62l-3.31,4.05,7.9-1.52,1,2.53,8.4-7.08s-.76,4.8-.51,5.56,9.18-4.8,9.18-4.8l-.77,2.53,13-9.11a55.83,55.83,0,0,1-.25,6.07c-.26.76,3.57-2.27,4.84-2.53s-1,5.57,2.29,3,11.47-7.09,11.47-7.09l.25,2.79h13s-19.87,11.63-27,16.94-17.84,14.93-18.35,16.45-4.84,7.33-6.11,9.35-9.42,18.47-9.42,18.47l-1.79,4.8,12.23-7.33,2,4.55L324,453.71l4.58,7.85,5.35-12.65,3.32,2.53,1-12.65s2.55,2.28,2.81,0S347.7,431,347.7,431s3.31.25,4.59.25,6.62-3.29,6.62-3.29l7.64,1s-18.85,4.3-21.91,9.86-.25,14.42-.25,14.42,12.74-12.4,12.74-9.61a21.64,21.64,0,0,1-.51,4.8l6.36-4.8,3.82-1.27,6.63-6.07a42.43,42.43,0,0,0-8.15,19.23c-1.79,11.63-1.79,24.78-1.53,25.8s4.58,11.12,4.58,11.12l-2.54-19s5.34,11.89,5.6,11.13-2.29-16.94-1.53-16.94,3.06,4.8,3.06,4.8l.51-18.21s6.11,12.4,5.6,11.13.26-12.65.26-12.65,3.57,6.83,4.33,4.05,2.29-13.66,2.29-13.66l2.55,4.81-.25-13.66,6.87,6.32s5.61,47.56,6.37,60.2,7.39,129.25,8.92,161.88-3.06,92.32-3.06,113.82S404.36,823.91,404.36,823.91Z" transform="translate(169.34 -120.53)"/><path class="cls-30" d="M1427.12,920.39c0,8.42-211.81,15.24-473.1,15.24s-473.11-6.82-473.11-15.24S692.73,905.16,954,905.16,1427.12,912,1427.12,920.39Z" transform="translate(169.34 -120.53)"/><path class="cls-17" d="M1128.31,854.46s7.75,14,24.16,14.48,127.6-.45,127.6-.45H1302s23.7-4.07,26-21.72S1302.4,783,1228.12,792,1130.59,812.83,1128.31,854.46Z" transform="translate(169.34 -120.53)"/><path class="cls-17" d="M644.3,850.39s34.64,0,55.14-2.26,118,7.69,129,3.62S802.9,762.6,721.78,767.58,644.75,821.88,644.3,850.39Z" transform="translate(169.34 -120.53)"/><path class="cls-31" d="M1128.31,854.46s7.75,14,24.16,14.48,127.6-.45,127.6-.45H1302s23.7-4.07,26-21.72S1302.4,783,1228.12,792,1130.59,812.83,1128.31,854.46Z" transform="translate(169.34 -120.53)"/><path class="cls-32" d="M644.3,850.39s34.64,0,55.14-2.26,118,7.69,129,3.62S802.9,762.6,721.78,767.58,644.75,821.88,644.3,850.39Z" transform="translate(169.34 -120.53)"/><path d="M1292.84,864.42c0,35.74-29.19,64.71-65.18,64.71s-65.17-29-65.17-64.71,29.17-64.71,65.17-64.71S1292.84,828.68,1292.84,864.42Z" transform="translate(169.34 -120.53)"/><path class="cls-33" d="M1292.84,864.42c0,35.74-29.19,64.71-65.18,64.71s-65.17-29-65.17-64.71,29.17-64.71,65.17-64.71S1292.84,828.68,1292.84,864.42Z" transform="translate(169.34 -120.53)"/><path class="cls-4" d="M1264.57,864.42a36.91,36.91,0,1,1-36.91-36.65A36.78,36.78,0,0,1,1264.57,864.42Z" transform="translate(169.34 -120.53)"/><path class="cls-34" d="M1260,864.42a32.36,32.36,0,1,1-32.36-32.13A32.24,32.24,0,0,1,1260,864.42Z" transform="translate(169.34 -120.53)"/><path class="cls-35" d="M1382.17,779.34c0,48.43-7.3,75.12-7.3,75.12h-50.13a238.49,238.49,0,0,1-16-25.34c-7.28-13.57-20-14.93-20-14.93s-101.18.91-118.49.45-21,14.48-21,14.48L1132,860.79l-310.37,3.63-11.4-5.88s-7.29-19.47-22.33-44.35-49.67-24-80.67-19.46-42.38,48-45.12,56.56-21.88,6.79-53.32,7.25-30.08-16.75-33.27-24.44-3.65-81-3.65-81l0,0c.47-1.64,16-54.45,19.58-66.48,3.65-12.22,14.58-24.43,14.58-24.43l49.68-76,695.93-3.62c16.64,19.24,25.53,96.39,25.53,96.39s.14,1.44.37,4.07C1378.68,696.1,1382.17,739,1382.17,779.34Z" transform="translate(169.34 -120.53)"/><path class="cls-36" d="M1377.52,683l-477.09,4.53s-209.65,1.36-258.87,9.5c-48.45,8-69.09,54.62-69.71,56.07.47-1.64,16-54.45,19.58-66.48,3.65-12.22,14.58-24.43,14.58-24.43l49.68-76,695.93-3.62c16.64,19.24,25.53,96.39,25.53,96.39S1377.29,680.33,1377.52,683Z" transform="translate(169.34 -120.53)"/><path class="cls-36" d="M637.46,590.2l198.25-1.7,380.44-2,127.5-.67,10.94-.35A80.79,80.79,0,0,0,1327.47,566c-17.32-7.7-69-11.09-83.86-11.31s-45.8-.23-45.8-.23L1028,555.81l-178.2,1.81s-5.47-12.9-13.67-11.77-11.39,3.62-14.36,3.62-107.55,8.37-114.39,9.28-43.52,4.07-56.29,14.48S637.46,590.2,637.46,590.2Z" transform="translate(169.34 -120.53)"/><path class="cls-34" d="M809.05,572.89c0,3.93.2,7.13-3.76,7.13H717.1a7.16,7.16,0,0,1-7.17-7.13h0c0-3.94,17-7.13,21-7.13h74.4c4,0,3.76,3.19,3.76,7.13Z" transform="translate(169.34 -120.53)"/><path class="cls-34" d="M930.74,572.89c0,3.93-.93,7.13-4.6,7.13H844.42c-3.68,0-4.61-3.2-4.61-7.13h0c0-3.94.93-7.13,4.61-7.13h81.72c3.67,0,4.6,3.19,4.6,7.13Z" transform="translate(169.34 -120.53)"/><path class="cls-34" d="M1054.82,572.89c0,3.93-1.27,7.13-5,7.13H968.15c-3.67,0-4.94-3.2-4.94-7.13h0c0-3.94,1.27-7.13,4.94-7.13h81.72c3.68,0,5,3.19,5,7.13Z" transform="translate(169.34 -120.53)"/><path class="cls-34" d="M1176.85,572.21c0,3.94-.93,7.13-4.6,7.13h-81.72c-3.68,0-5-3.19-5-7.13h0c0-3.93,1.27-7.12,5-7.12h81.72c3.67,0,4.6,3.19,4.6,7.12Z" transform="translate(169.34 -120.53)"/><path class="cls-7" d="M656.94,843s1,21.38-15.72,24.77-54.69-2.71-62.21-2.38-24.27-4.07-25-13.91,5.12-16.63,15-16.63,6.83,5.77,26,6.45,50.59,0,50.59,0S656.94,839.64,656.94,843Z" transform="translate(169.34 -120.53)"/><path class="cls-7" d="M543.12,806.38l3.76,55.32s9.91,3.4,14-.34,7.87-21.72,4.45-27.14-10.94-28.85-10.94-28.85S547.22,802.65,543.12,806.38Z" transform="translate(169.34 -120.53)"/><path class="cls-36" d="M586.19,771.65c0,12.75-4.34,23.08-9.69,23.08s-9.68-10.33-9.68-23.08,4.33-23.07,9.68-23.07S586.19,758.91,586.19,771.65Z" transform="translate(169.34 -120.53)"/><path class="cls-35" d="M579.81,771c0,10-3.42,18.2-7.64,18.2s-7.63-8.15-7.63-18.2,3.42-18.19,7.63-18.19S579.81,760.93,579.81,771Z" transform="translate(169.34 -120.53)"/><path class="cls-36" d="M598,732.31c-2,6.65-6.24,11.26-9.53,10.31s-4.38-7.14-2.41-13.79,6.23-11.27,9.53-10.31S600,725.65,598,732.31Z" transform="translate(169.34 -120.53)"/><path class="cls-37" d="M594.16,730.81c-1.55,5.24-4.91,8.88-7.51,8.12s-3.45-5.62-1.9-10.86,4.91-8.89,7.51-8.13S595.71,725.56,594.16,730.81Z" transform="translate(169.34 -120.53)"/><path class="cls-7" d="M555.43,810.34s-2.74,2.26-1.37,5.21a4.15,4.15,0,0,0,4.55,2.26s11.85-2.71,16.64,3.17,5,13.12,5.24,15.61.46,5.88.46,5.88,4.1,4.07,8-1.35c0,0-.45-15.61-6.38-23.76S555.43,810.34,555.43,810.34Z" transform="translate(169.34 -120.53)"/><path class="cls-7" d="M552.23,807.18s6.16-10.41,24.16-7.93l-.46,5.66s-15,0-19.59,7.25Z" transform="translate(169.34 -120.53)"/><path class="cls-38" d="M600.89,836.25H646a16.3,16.3,0,0,0,14.69-7.47c5.47-8.48,10.94-46.83,64.61-46.16s88.4,1.37,88.4,1.37l.13-102.5-120.66,1s-65.29-.34-83.41,12.22C609.77,694.73,593,795.86,600.89,836.25Z" transform="translate(169.34 -120.53)"/><path class="cls-39" d="M600.89,836.25H646a16.3,16.3,0,0,0,14.69-7.47c5.47-8.48,10.94-46.83,64.61-46.16s88.4,1.37,88.4,1.37l.13-102.5" transform="translate(169.34 -120.53)"/><path class="cls-34" d="M770.31,719.84h27.58s4.1-3.84,7.74-2,3.42,6.79,1.6,8.15-8,1.81-9.8.22-22.79-1.58-22.79-1.58S769,724.82,770.31,719.84Z" transform="translate(169.34 -120.53)"/><path d="M817.48,844.51s3.65,6.33,7.29,6.79h280.75s8.2-2.26,9.11-7.24Z" transform="translate(169.34 -120.53)"/><path d="M799.26,864.42c0,35.74-29.19,64.71-65.18,64.71s-65.17-29-65.17-64.71,29.18-64.71,65.17-64.71S799.26,828.68,799.26,864.42Z" transform="translate(169.34 -120.53)"/><path class="cls-40" d="M799.26,864.42c0,35.74-29.19,64.71-65.18,64.71s-65.17-29-65.17-64.71,29.18-64.71,65.17-64.71S799.26,828.68,799.26,864.42Z" transform="translate(169.34 -120.53)"/><path class="cls-4" d="M771,864.42a36.92,36.92,0,1,1-36.92-36.65A36.79,36.79,0,0,1,771,864.42Z" transform="translate(169.34 -120.53)"/><path class="cls-34" d="M766.44,864.42a32.36,32.36,0,1,1-32.36-32.13A32.24,32.24,0,0,1,766.44,864.42Z" transform="translate(169.34 -120.53)"/><path d="M606.36,626.17c4.1-.34,3.76,4.42,4.44,10.18s4.79,32.59,4.79,32.59-3.42,3.39-5.47-2-5.47-14.6-5.82-23.42A63.42,63.42,0,0,1,606.36,626.17Z" transform="translate(169.34 -120.53)"/><path class="cls-7" d="M608.75,698.12s-7.18-2.38-7.18-12.56,6.49-25.11,6.49-25.11l2.06,4.41s-6.5,10.52-5.82,19.68,5.47,10.19,5.47,10.19Z" transform="translate(169.34 -120.53)"/><path class="cls-35" d="M812.13,673.35H635.07a10.51,10.51,0,0,1-8.89-8.15,12.05,12.05,0,0,1,4.1-11.88l30.77-51.24s-1-5.43,12.64-4.75S797.43,596,797.43,596s14.36-2.38,14.7,11.88S812.13,673.35,812.13,673.35Z" transform="translate(169.34 -120.53)"/><path class="cls-37" d="M806.53,668.62H640.13s-6.74,1.74-8.35-5.25a11.35,11.35,0,0,1,3.85-11.18l28.91-45.76s-1-5.11,11.88-4.47c3.78.19,15.38.15,29.9,0,7.15-.07,15-.16,22.95-.26l9.7-.14,23-.36c17.54-.28,30.74-.53,30.74-.53s13.5-2.22,13.83,11.18S806.53,668.62,806.53,668.62Z" transform="translate(169.34 -120.53)"/><path class="cls-41" d="M806.53,668.62H640.13s-6.74,1.74-8.35-5.25a11.35,11.35,0,0,1,3.85-11.18l28.91-45.76s-1-5.11,11.88-4.47c3.78.19,15.38.15,29.9,0,7.15-.07,15-.16,22.95-.26l9.7-.14,23-.36c17.54-.28,30.74-.53,30.74-.53s13.5-2.22,13.83,11.18S806.53,668.62,806.53,668.62Z" transform="translate(169.34 -120.53)"/><path class="cls-36" d="M729.27,601.7l-27.66,66.92H678.76L706.32,602C713.47,601.89,721.31,601.8,729.27,601.7Z" transform="translate(169.34 -120.53)"/><path class="cls-36" d="M762,601.2l-27.88,67.42H711.23L739,601.56Z" transform="translate(169.34 -120.53)"/><path class="cls-7" d="M1394.92,809.78l-6.15,36.31,6.84,24.77,11.62-1V814.19s-1.37-4.76-3.76-5.09S1394.92,809.78,1394.92,809.78Z" transform="translate(169.34 -120.53)"/><path class="cls-35" d="M939.06,656.57a17.85,17.85,0,0,1-17.91,17.78H848a17.85,17.85,0,0,1-17.91-17.78V611.75A17.85,17.85,0,0,1,848,594h73.12a17.85,17.85,0,0,1,17.91,17.78Z" transform="translate(169.34 -120.53)"/><path class="cls-17" d="M934.5,613.63v41.06A16.34,16.34,0,0,1,918.09,671h-67a16.34,16.34,0,0,1-16.41-16.29V613.63a16.34,16.34,0,0,1,16.41-16.29h67A16.34,16.34,0,0,1,934.5,613.63Z" transform="translate(169.34 -120.53)"/><path class="cls-37" d="M934.51,613.62V654.7A16.35,16.35,0,0,1,918.1,671h-53a16.86,16.86,0,0,1-2.58-3.24,18.27,18.27,0,0,1-2.88-10V610.54a18.59,18.59,0,0,1,5.46-13.21h53a15.67,15.67,0,0,1,5.61,1A16.29,16.29,0,0,1,934.51,613.62Z" transform="translate(169.34 -120.53)"/><path class="cls-42" d="M934.51,613.62V654.7A16.35,16.35,0,0,1,918.1,671h-53a16.86,16.86,0,0,1-2.58-3.24,18.27,18.27,0,0,1-2.88-10V610.54a18.59,18.59,0,0,1,5.46-13.21h53a15.67,15.67,0,0,1,5.61,1A16.29,16.29,0,0,1,934.51,613.62Z" transform="translate(169.34 -120.53)"/><path class="cls-36" d="M914.49,597.33,884,671H865.11a16.86,16.86,0,0,1-2.58-3.24l29.11-70.41Z" transform="translate(169.34 -120.53)"/><path class="cls-36" d="M934.51,613.62v13.87l-18,43.49H893.66l30.05-72.65A16.29,16.29,0,0,1,934.51,613.62Z" transform="translate(169.34 -120.53)"/><path class="cls-35" d="M1073.77,656.57a17.85,17.85,0,0,1-17.92,17.78H982.74a17.85,17.85,0,0,1-17.91-17.78V611.75A17.85,17.85,0,0,1,982.74,594h73.11a17.85,17.85,0,0,1,17.92,17.78Z" transform="translate(169.34 -120.53)"/><path class="cls-17" d="M1069.21,613.63v41.06A16.35,16.35,0,0,1,1052.8,671h-67a16.35,16.35,0,0,1-16.41-16.29V613.63a16.35,16.35,0,0,1,16.41-16.29h67A16.35,16.35,0,0,1,1069.21,613.63Z" transform="translate(169.34 -120.53)"/><path class="cls-37" d="M1069.21,613.62V654.7A16.35,16.35,0,0,1,1052.8,671h-53a16.81,16.81,0,0,1-2.57-3.24,18.27,18.27,0,0,1-2.89-10V610.54a18.59,18.59,0,0,1,5.46-13.21h53a15.59,15.59,0,0,1,5.61,1A16.29,16.29,0,0,1,1069.21,613.62Z" transform="translate(169.34 -120.53)"/><path class="cls-43" d="M1069.21,613.62V654.7A16.35,16.35,0,0,1,1052.8,671h-53a16.81,16.81,0,0,1-2.57-3.24,18.27,18.27,0,0,1-2.89-10V610.54a18.59,18.59,0,0,1,5.46-13.21h53a15.59,15.59,0,0,1,5.61,1A16.29,16.29,0,0,1,1069.21,613.62Z" transform="translate(169.34 -120.53)"/><path class="cls-36" d="M1049.2,597.33,1018.74,671H999.81a16.81,16.81,0,0,1-2.57-3.24l29.11-70.41Z" transform="translate(169.34 -120.53)"/><path class="cls-36" d="M1069.21,613.62v13.87l-18,43.49h-22.86l30.05-72.65A16.29,16.29,0,0,1,1069.21,613.62Z" transform="translate(169.34 -120.53)"/><path class="cls-35" d="M1201.25,656.57a17.84,17.84,0,0,1-17.9,17.78h-73.12a17.85,17.85,0,0,1-17.91-17.78V611.75A17.85,17.85,0,0,1,1110.23,594h73.12a17.84,17.84,0,0,1,17.9,17.78Z" transform="translate(169.34 -120.53)"/><path class="cls-17" d="M1196.69,613.63v41.06A16.34,16.34,0,0,1,1180.28,671h-67a16.34,16.34,0,0,1-16.41-16.29V613.63a16.34,16.34,0,0,1,16.41-16.29h67A16.34,16.34,0,0,1,1196.69,613.63Z" transform="translate(169.34 -120.53)"/><path class="cls-37" d="M1196.7,613.62V654.7a16.27,16.27,0,0,1-14.31,16.12,12.38,12.38,0,0,1-2.1.16h-53l-.22-.23a18.51,18.51,0,0,1-5.24-13V610.54a18.59,18.59,0,0,1,5.46-13.21h53a16.4,16.4,0,0,1,16.41,16.29Z" transform="translate(169.34 -120.53)"/><path class="cls-44" d="M1196.7,613.62V654.7a16.27,16.27,0,0,1-14.31,16.12,12.38,12.38,0,0,1-2.1.16h-53l-.22-.23a18.51,18.51,0,0,1-5.24-13V610.54a18.59,18.59,0,0,1,5.46-13.21h53a16.4,16.4,0,0,1,16.41,16.29Z" transform="translate(169.34 -120.53)"/><path class="cls-36" d="M1180.29,597.33,1149.84,671H1127.3l-.22-.23,30.36-73.42Z" transform="translate(169.34 -120.53)"/><path class="cls-36" d="M1196.7,613.62v22.59l-14.31,34.61a12.38,12.38,0,0,1-2.1.16h-20.83l29.45-71.21A16.26,16.26,0,0,1,1196.7,613.62Z" transform="translate(169.34 -120.53)"/><path class="cls-35" d="M1332.76,656.57a17.85,17.85,0,0,1-17.91,17.78h-73.12a17.85,17.85,0,0,1-17.91-17.78V611.75A17.85,17.85,0,0,1,1241.73,594h73.12a17.85,17.85,0,0,1,17.91,17.78Z" transform="translate(169.34 -120.53)"/><path class="cls-17" d="M1328.19,613.63v41.06a16.34,16.34,0,0,1-16.4,16.29h-67a16.34,16.34,0,0,1-16.41-16.29V613.63a16.34,16.34,0,0,1,16.41-16.29h67A16.34,16.34,0,0,1,1328.19,613.63Z" transform="translate(169.34 -120.53)"/><path class="cls-37" d="M1328.19,613.63v41.06a16.34,16.34,0,0,1-16.4,16.29h-53a18.62,18.62,0,0,1-5.46-13.19V610.53a18.57,18.57,0,0,1,5.46-13.19h53A16.34,16.34,0,0,1,1328.19,613.63Z" transform="translate(169.34 -120.53)"/><path class="cls-45" d="M1328.19,613.63v41.06a16.34,16.34,0,0,1-16.4,16.29h-53a18.62,18.62,0,0,1-5.46-13.19V610.53a18.57,18.57,0,0,1,5.46-13.19h53A16.34,16.34,0,0,1,1328.19,613.63Z" transform="translate(169.34 -120.53)"/><path class="cls-7" d="M1330.32,859c0,7.82,2,13.24,14,14.26s39-.68,39-.68,11.28,0,14-4.07a83,83,0,0,0,5.48-10.18s1.7-13.92-4.79-15.27a112.46,112.46,0,0,0-15.38-1.7s-9.57,5.43-15.72,5.09-27,.34-27,.34S1330.32,848.81,1330.32,859Z" transform="translate(169.34 -120.53)"/><path class="cls-7" d="M1372.71,851.86c2.52,2.26,4.78.68,7.86-3.4s18.11-20.69,18.11-20.69,7.18-5.44,3.76-9.51-9.91,4.07-9.91,4.07l-17.77,22.4S1369.29,848.81,1372.71,851.86Z" transform="translate(169.34 -120.53)"/><path class="cls-17" d="M1248.63,759.66h62.66s-2.51,3.39-5.24,3.17-52,0-52,0S1249.31,761.47,1248.63,759.66Z" transform="translate(169.34 -120.53)"/><path class="cls-17" d="M1248.63,750.16h62.66s-2.51,3.4-5.24,3.17-52,0-52,0S1249.31,752,1248.63,750.16Z" transform="translate(169.34 -120.53)"/><path class="cls-17" d="M1248.63,740.66h62.66s-2.51,3.39-5.24,3.17-52,0-52,0S1249.31,742.46,1248.63,740.66Z" transform="translate(169.34 -120.53)"/><path class="cls-17" d="M1248.63,731.15h62.66s-2.51,3.4-5.24,3.17-52,0-52,0S1249.31,733,1248.63,731.15Z" transform="translate(169.34 -120.53)"/><path class="cls-17" d="M1248.63,721.65h62.66s-2.51,3.39-5.24,3.17-52,0-52,0S1249.31,723.46,1248.63,721.65Z" transform="translate(169.34 -120.53)"/><path class="cls-17" d="M1248.63,712.15h62.66s-2.51,3.39-5.24,3.17-52,0-52,0S1249.31,714,1248.63,712.15Z" transform="translate(169.34 -120.53)"/><path class="cls-17" d="M1248.63,702.65h62.66s-2.51,3.39-5.24,3.16-52,0-52,0S1249.31,704.45,1248.63,702.65Z" transform="translate(169.34 -120.53)"/><line class="cls-38" x1="983.18" y1="560.96" x2="1545.57" y2="555.94"/><line class="cls-38" x1="1523.12" y1="468.36" x2="821.53" y2="468.36"/><rect class="cls-34" x="1396.43" y="516.92" width="101.83" height="7.17"/><rect class="cls-34" x="1396.43" y="530.46" width="101.83" height="7.16"/><path class="cls-46" d="M1206.44,548.4c0,3.34-1.27,6.05-2.85,6.05h-65.46c-1.57,0-2.85-2.71-2.85-6.05V507.72c0-3.33,1.28-6,2.85-6h65.46c1.58,0,2.85,2.71,2.85,6Z" transform="translate(169.34 -120.53)"/><path class="cls-47" d="M1206.44,548.4c0,3.34-1.27,6.05-2.85,6.05h-65.46c-1.57,0-2.85-2.71-2.85-6.05V507.72c0-3.33,1.28-6,2.85-6h65.46c1.58,0,2.85,2.71,2.85,6Z" transform="translate(169.34 -120.53)"/><path class="cls-11" d="M1137.49,486.36v60a9,9,0,0,1-9,8.91H922.16a9,9,0,0,1-9-8.91v-60a9,9,0,0,1,9-8.93H1128.5A9,9,0,0,1,1137.49,486.36Z" transform="translate(169.34 -120.53)"/><path class="cls-48" d="M1137.49,486.36v50H913.18v-50a9,9,0,0,1,9-8.93H1128.5A9,9,0,0,1,1137.49,486.36Z" transform="translate(169.34 -120.53)"/><line class="cls-49" x1="1082.52" y1="406.27" x2="1304.62" y2="406.27"/><rect class="cls-17" x="1067.29" y="388.75" width="16.84" height="12.74"/><rect class="cls-34" x="1184.35" y="351.33" width="26.46" height="83.59"/><rect class="cls-50" x="1184.35" y="351.33" width="26.46" height="83.59"/><rect class="cls-34" x="1329.08" y="376.49" width="16.83" height="57.95"/><rect class="cls-51" x="1329.08" y="376.49" width="16.83" height="57.95"/><rect class="cls-34" x="1124.62" y="389.55" width="10.43" height="19.51"/><path class="cls-35" d="M969.35,534.83a6.72,6.72,0,0,1-6.74,6.7h-3.74a6.72,6.72,0,0,1-6.74-6.7v-7.71a6.71,6.71,0,0,1,6.74-6.69h3.74a6.71,6.71,0,0,1,6.74,6.69Z" transform="translate(169.34 -120.53)"/><rect class="cls-34" x="1265.73" y="389.55" width="10.43" height="19.51"/><path class="cls-35" d="M1110.47,534.83a6.72,6.72,0,0,1-6.74,6.7H1100a6.72,6.72,0,0,1-6.74-6.7v-7.71a6.71,6.71,0,0,1,6.74-6.69h3.74a6.71,6.71,0,0,1,6.74,6.69Z" transform="translate(169.34 -120.53)"/><path class="cls-4" d="M233.61,507.59a2.18,2.18,0,1,1-2.17-2.17A2.17,2.17,0,0,1,233.61,507.59Z" transform="translate(169.34 -120.53)"/><path class="cls-4" d="M230.56,545.2a4.36,4.36,0,1,1-4.35-4.32A4.34,4.34,0,0,1,230.56,545.2Z" transform="translate(169.34 -120.53)"/><path class="cls-4" d="M282.83,504.12a.44.44,0,0,1-.44.44.44.44,0,0,1-.43-.44.43.43,0,0,1,.43-.43A.44.44,0,0,1,282.83,504.12Z" transform="translate(169.34 -120.53)"/><path class="cls-4" d="M302.43,566.61a7.19,7.19,0,1,1-7.19-7.13A7.17,7.17,0,0,1,302.43,566.61Z" transform="translate(169.34 -120.53)"/><path class="cls-4" d="M242.32,634.72a5.66,5.66,0,1,1-5.66-5.62A5.63,5.63,0,0,1,242.32,634.72Z" transform="translate(169.34 -120.53)"/><path class="cls-4" d="M359.05,525.74a5.67,5.67,0,1,1-5.66-5.62A5.65,5.65,0,0,1,359.05,525.74Z" transform="translate(169.34 -120.53)"/><path class="cls-4" d="M365.58,570.5a6.32,6.32,0,1,1-6.31-6.27A6.28,6.28,0,0,1,365.58,570.5Z" transform="translate(169.34 -120.53)"/><path class="cls-4" d="M370.37,654a4.14,4.14,0,1,1-4.13-4.11A4.12,4.12,0,0,1,370.37,654Z" transform="translate(169.34 -120.53)"/><path class="cls-4" d="M416.11,474.5a2.84,2.84,0,1,1-2.83-2.81A2.82,2.82,0,0,1,416.11,474.5Z" transform="translate(169.34 -120.53)"/><path class="cls-4" d="M206.61,446.83a3.7,3.7,0,1,1-3.7-3.68A3.69,3.69,0,0,1,206.61,446.83Z" transform="translate(169.34 -120.53)"/><path class="cls-4" d="M570.62,592.1a2.16,2.16,0,0,1,.56,3,2.19,2.19,0,0,1-3,.56,2.16,2.16,0,0,1-.56-3A2.2,2.2,0,0,1,570.62,592.1Z" transform="translate(169.34 -120.53)"/><path class="cls-4" d="M600.1,615.93a4.32,4.32,0,0,1,1.12,6,4.38,4.38,0,0,1-6.06,1.11,4.32,4.32,0,0,1-1.12-6A4.39,4.39,0,0,1,600.1,615.93Z" transform="translate(169.34 -120.53)"/><path class="cls-4" d="M504.9,579.73a3.66,3.66,0,0,1,1,5.11,3.72,3.72,0,0,1-5.15.94,3.65,3.65,0,0,1-.95-5.11A3.7,3.7,0,0,1,504.9,579.73Z" transform="translate(169.34 -120.53)"/><path class="cls-4" d="M94.67,477.31a2.18,2.18,0,1,1-2.17-2.16A2.16,2.16,0,0,1,94.67,477.31Z" transform="translate(169.34 -120.53)"/><path class="cls-4" d="M145.63,570.5A10.67,10.67,0,1,1,135,559.91,10.64,10.64,0,0,1,145.63,570.5Z" transform="translate(169.34 -120.53)"/><path class="cls-4" d="M330.31,440.55a7,7,0,1,1-7-6.91A6.95,6.95,0,0,1,330.31,440.55Z" transform="translate(169.34 -120.53)"/><path class="cls-4" d="M1684,596.64a2.18,2.18,0,1,1,2.82,1.21A2.17,2.17,0,0,1,1684,596.64Z" transform="translate(169.34 -120.53)"/><path class="cls-4" d="M1672.91,560.53a4.3,4.3,0,0,1,2.45-5.61,4.36,4.36,0,0,1,5.65,2.44,4.3,4.3,0,0,1-2.45,5.6A4.36,4.36,0,0,1,1672.91,560.53Z" transform="translate(169.34 -120.53)"/><path class="cls-4" d="M1639.47,617.79a.44.44,0,1,1,.57.24A.44.44,0,0,1,1639.47,617.79Z" transform="translate(169.34 -120.53)"/><path class="cls-4" d="M1598.15,566.8a7.11,7.11,0,0,1,4-9.25,7.21,7.21,0,0,1,9.33,4,7.18,7.18,0,0,1-13.37,5.24Z" transform="translate(169.34 -120.53)"/><path class="cls-4" d="M1628.88,481.54a5.61,5.61,0,0,1,3.19-7.29,5.63,5.63,0,1,1-3.19,7.29Z" transform="translate(169.34 -120.53)"/><path class="cls-4" d="M1560.58,625.45a5.61,5.61,0,0,1,3.19-7.3,5.69,5.69,0,0,1,7.35,3.17,5.6,5.6,0,0,1-3.19,7.29A5.68,5.68,0,0,1,1560.58,625.45Z" transform="translate(169.34 -120.53)"/><path class="cls-4" d="M1538,586.19a6.25,6.25,0,0,1,3.55-8.13,6.34,6.34,0,0,1,8.2,3.53,6.25,6.25,0,0,1-3.56,8.13A6.32,6.32,0,0,1,1538,586.19Z" transform="translate(169.34 -120.53)"/><path class="cls-4" d="M1502.65,510.3a4.13,4.13,0,1,1,5.37,2.32A4.12,4.12,0,0,1,1502.65,510.3Z" transform="translate(169.34 -120.53)"/><path class="cls-4" d="M1526.45,693.91a2.8,2.8,0,0,1,1.59-3.65,2.84,2.84,0,0,1,3.67,1.58,2.8,2.8,0,0,1-1.59,3.65A2.84,2.84,0,0,1,1526.45,693.91Z" transform="translate(169.34 -120.53)"/><path class="cls-4" d="M1731.56,643.31a3.65,3.65,0,0,1,2.08-4.76,3.7,3.7,0,0,1,4.8,2.07,3.67,3.67,0,0,1-2.08,4.77A3.72,3.72,0,0,1,1731.56,643.31Z" transform="translate(169.34 -120.53)"/><path class="cls-4" d="M1339.24,640.81a2.16,2.16,0,1,1,2.61-1.62A2.16,2.16,0,0,1,1339.24,640.81Z" transform="translate(169.34 -120.53)"/><path class="cls-4" d="M1303,629.39a4.33,4.33,0,1,1,5.23-3.24A4.33,4.33,0,0,1,1303,629.39Z" transform="translate(169.34 -120.53)"/><path class="cls-4" d="M1405,628.38a3.68,3.68,0,1,1,4.44-2.75A3.67,3.67,0,0,1,1405,628.38Z" transform="translate(169.34 -120.53)"/><path class="cls-4" d="M1824.41,574.17a2.18,2.18,0,1,1,2.82,1.22A2.19,2.19,0,0,1,1824.41,574.17Z" transform="translate(169.34 -120.53)"/><path class="cls-4" d="M1761.75,318.28a10.57,10.57,0,0,1,6-13.74,10.69,10.69,0,0,1,13.84,6,10.56,10.56,0,0,1-6,13.74A10.69,10.69,0,0,1,1761.75,318.28Z" transform="translate(169.34 -120.53)"/><path class="cls-4" d="M1618.81,694.22a7,7,0,1,1,9,3.9A7,7,0,0,1,1618.81,694.22Z" transform="translate(169.34 -120.53)"/></g></g></svg>