<svg id="Capa_1" enable-background="new 0 0 512 512" height="512" viewBox="0 0 512 512" width="512" xmlns="http://www.w3.org/2000/svg"><g><path d="m216 0h-128c-8.28 0-15 6.72-15 15v80.33c0 8.29 6.72 15 15 15h128c8.28 0 15-6.71 15-15v-80.33c0-8.28-6.72-15-15-15zm-15 80.33-49.408 23-48.592-23v-50.33h98z" fill="#704c55"/><path d="m231 15v80.33c0 8.29-6.72 15-15 15h-64.41v-6l49.41-24v-50.33h-49.41v-30h64.41c8.28 0 15 6.72 15 15z" fill="#5a344b"/><path d="m289 136-6 325c0 28.78-18.22 32-47 32l-91.4 19h-42.26l-13.34-5-16.66 5h-20.14c-28.78 0-52.2-23.42-52.2-52.2v-285.2l6-14.6-6-15.4v-12.08c0-28.78 23.42-52.21 52.2-52.21h20.76l14.04 9.69 16-9.69h41.6l54.4 21.69 50-11c21.774 66.21 39.91 17.073 40 45z" fill="#ffda44"/><path d="m303.184 132.518v327.278c0 28.782-23.422 52.204-52.204 52.204h-99.388v-422.686l16.063-9h83.326c28.782 0 52.203 23.421 52.203 52.204z" fill="#ffb541"/><path d="m303.18 144.6h-128.58v-64.29h-30v64.29h-41.732l.092-64.29h-30l-.092 64.29h-72.868v30h72.825l-.485 337.4h30l.485-337.4h41.775v337.4h30v-337.4h128.58z" fill="#ffb541"/><path d="m303.184 144.565h-135.529v-64.251h-16.063v431.686h16.063v-337.318h135.529z" fill="#ff9100"/><path d="m372.134 208.816h-87.703c-28.411 0-51.521 23.11-51.521 51.521v27.789c0 8.312 6.746 15.059 15.059 15.059h160.627c8.313 0 15.059-6.746 15.059-15.059v-27.789c0-28.411-23.11-51.521-51.521-51.521zm21.403 64.251-65.255 15-65.255-15v-12.73c0-11.806 9.597-21.404 21.404-21.404h87.703c11.806 0 21.404 9.597 21.404 21.404v12.73z" fill="#704c55"/><path d="m423.655 260.337v27.789c0 8.312-6.746 15.059-15.059 15.059h-80.314v-11.118l65.255-19v-12.73c0-11.806-9.598-21.404-21.404-21.404h-43.851v-30.118h43.851c28.412.001 51.522 23.111 51.522 51.522z" fill="#5a344b"/><path d="m512 316.316v152.435c0 23.843-19.406 43.249-43.249 43.249h-280.937c-23.843 0-43.249-19.406-43.249-43.249v-152.435c0-23.843 19.406-43.249 43.249-43.249h280.937c23.843 0 43.249 19.405 43.249 43.249z" fill="#ffe1ba"/><path d="m512 316.316v152.435c0 23.843-19.406 43.249-43.249 43.249h-140.469v-238.933h140.469c23.843 0 43.249 19.405 43.249 43.249z" fill="#ffbfab"/><path d="m260.499 344.024c-4.613-6.92-13.964-8.79-20.883-4.177l-24.094 16.063c-12.433 8.289-6.392 27.59 8.367 27.59 6.053 0 6.819-1.517 32.433-18.593 6.92-4.614 8.79-13.964 4.177-20.883z" fill="#ff7f4b"/><path d="m424.659 417.631h-24.094c-8.317 0-15.059 6.742-15.059 15.059s6.742 15.059 15.059 15.059h24.094c8.317 0 15.059-6.742 15.059-15.059 0-8.316-6.743-15.059-15.059-15.059z" fill="#fd5219"/><circle cx="368.439" cy="360.408" fill="#00a0aa" r="23.09"/><circle cx="296.157" cy="416.627" fill="#64dde0" r="23.09"/></g></svg>