<svg id="Capa_1" enable-background="new 0 0 511.94 511.94" height="512" viewBox="0 0 511.94 511.94" width="512" xmlns="http://www.w3.org/2000/svg"><g><path d="m511.91 150.53v361.41h-511.88v-361.41l25.79-105.35h471.83z" fill="#f3f5f9"/><path d="m511.91 150.53v361.41h-255.94v-466.76h241.68z" fill="#e1e6f0"/><path d="m.03 30.18h511.88v120.35h-511.88z" fill="#bee75e"/><path d="m255.97 30.18h255.94v120.35h-255.94z" fill="#00cb75"/><path d="m386.213 421.785-43.243-32.432 18-24 20.757 15.568 38.854-45.33 22.778 19.524z" fill="#00cb75"/><path d="m240.97 0h30v60.24h-30z" fill="#5e54ac"/><g fill="#453d81"><path d="m255.97 0h15v60.24h-15z"/><path d="m391.558 0h30v60.235h-30z"/><path d="m316.264 0h30v60.235h-30z"/></g><path d="m165.676 0h30v60.235h-30z" fill="#5e54ac"/><path d="m90.382 0h30v60.235h-30z" fill="#5e54ac"/><circle cx="135.499" cy="256" fill="#e1e6f0" r="45.118"/><circle cx="255.97" cy="256" fill="#e1e6f0" r="45.12"/><path d="m301.09 256c0 24.88-20.24 45.12-45.12 45.12v-90.24c24.88 0 45.12 20.24 45.12 45.12z" fill="#cfd7e6"/><circle cx="135.499" cy="376.471" fill="#e1e6f0" r="45.118"/><circle cx="255.97" cy="376.47" fill="#e1e6f0" r="45.12"/><path d="m301.09 376.47c0 24.88-20.24 45.12-45.12 45.12v-90.24c24.88 0 45.12 20.24 45.12 45.12z" fill="#cfd7e6"/><circle cx="383.97" cy="256" fill="#cfd7e6" r="45.117"/></g></svg>