<?xml version="1.0"?>
<svg xmlns="http://www.w3.org/2000/svg" xmlns:xlink="http://www.w3.org/1999/xlink" xmlns:svgjs="http://svgjs.com/svgjs" version="1.1" width="512" height="512" x="0" y="0" viewBox="0 0 512 512" style="enable-background:new 0 0 512 512" xml:space="preserve" class=""><g><g xmlns="http://www.w3.org/2000/svg"><path d="m497 27.152h-45v-12.152c0-8.284-6.716-15-15-15s-15 6.716-15 15v12.152h-30v-12.152c0-8.284-6.716-15-15-15s-15 6.716-15 15v12.152h-212v-12.152c0-8.284-6.716-15-15-15s-15 6.716-15 15v12.152h-30v-12.152c0-8.284-6.716-15-15-15s-15 6.716-15 15v12.152h-45c-8.284 0-15 6.716-15 15v454.848c0 8.284 6.716 15 15 15h482c8.284 0 15-6.716 15-15 0-4.764 0-449.43 0-454.848 0-8.284-6.716-15-15-15zm-467 30h30v15c0 8.284 6.716 15 15 15s15-6.716 15-15v-15h30v15c0 8.284 6.716 15 15 15s15-6.716 15-15v-15h212v15c0 8.284 6.716 15 15 15s15-6.716 15-15v-15h30v15c0 8.284 6.716 15 15 15s15-6.716 15-15v-15h30v60h-452zm452 424.848h-452v-334.848h452z" fill="#77c3c3" data-original="#000000" style="" class=""/><path d="m189.978 312.606c5.776 5.775 15.093 5.855 20.967.241v49.153h-21.04c-8.284 0-15 6.716-15 15v60c0 8.284 6.716 15 15 15h132.08c8.284 0 15-6.716 15-15v-60c0-8.284-6.716-15-15-15h-21.04v-170.21c0-8.284-6.716-15-15-15h-60c-3.978 0-7.793 1.58-10.605 4.393l-67.79 67.78c-5.854 5.854-5.859 15.356-.001 21.214zm42.179-105.816h38.787v170.21c0 8.284 6.716 15 15 15h21.04v30h-102.08v-30h21.04c8.284 0 15-6.716 15-15v-100.36c0-13.363-16.201-20.012-25.606-10.606l-14.754 14.754-21.216-21.216z" fill="#77c3c3" data-original="#000000" style="" class=""/></g></g></svg>
