<svg height="460pt" viewBox="0 -48 460 460" width="460pt" xmlns="http://www.w3.org/2000/svg"><path d="m380.691406 237.699219v-174.257813h39.308594c22.089844 0 40 17.90625 40 40v221.378906c0 22.089844-17.910156 40-40 40h-305.980469c-22.089843 0-40-17.910156-40-40v-23.441406h266.769531c10.683594 0 20.925782-4.273437 28.4375-11.867187 7.515626-7.59375 11.679688-17.878907 11.5625-28.5625l-.097656-9.570313zm0 0" fill="#d4e1f4"/><path d="m74.019531 301.378906h-34.019531c-22.089844 0-40-17.90625-40-40v-10.96875h.449219l70.3125-48.910156c11.558593-7.609375 26.554687-7.550781 38.058593.140625l43.800782 29.320313c15.324218 10.25 36.003906 6.605468 46.898437-8.269532l58.582031-79.992187c6.542969-8.933594 16.988282-14.171875 28.0625-14.074219 11.078126.097656 21.429688 5.515625 27.816407 14.566406l66.710937 94.507813v13.679687l.097656 9.570313c.117188 10.683593-4.046874 20.96875-11.5625 28.5625-7.511718 7.59375-17.753906 11.867187-28.4375 11.867187zm0 0" fill="#00acea"/><path d="m380.691406 63.441406v174.257813l-66.710937-94.507813c-6.386719-9.050781-16.738281-14.46875-27.816407-14.566406-11.074218-.097656-21.519531 5.140625-28.0625 14.074219l-58.582031 79.992187c-10.894531 14.875-31.574219 18.519532-46.898437 8.269532l-43.800782-29.320313c-11.503906-7.691406-26.5-7.75-38.058593-.140625l-70.3125 48.910156h-.449219v-210.410156c0-22.089844 17.910156-40 40-40h300.691406c22.089844 0 40 17.910156 40 40zm-188.691406 37.039063c0-23.789063-19.28125-43.070313-43.070312-43.070313-23.785157 0-43.070313 19.28125-43.070313 43.070313 0 23.785156 19.285156 43.070312 43.070313 43.070312 23.789062 0 43.074218-19.28125 43.070312-43.070312zm0 0" fill="#00efd1"/><path d="m192 100.480469c0 23.785156-19.28125 43.070312-43.070312 43.070312-23.785157 0-43.070313-19.285156-43.070313-43.070312 0-23.789063 19.285156-43.070313 43.070313-43.070313 23.789062 0 43.070312 19.28125 43.070312 43.070313zm0 0" fill="#fedb41"/></svg>