<svg id="Layer_1" enable-background="new 0 0 510.227 510.227" height="512" viewBox="0 0 510.227 510.227" width="512" xmlns="http://www.w3.org/2000/svg"><path d="m406.48 62.753c-83.658-83.658-219.067-83.667-302.734 0-83.656 83.655-83.669 219.067 0 302.734l140.054 140.053c6.249 6.249 16.379 6.248 22.627 0l140.053-140.053c83.657-83.655 83.669-219.066 0-302.734zm-106.328 196.406c-24.893 24.893-65.182 24.895-90.077 0-39.873-39.873-11.552-108.734 45.039-108.734 56.606 0 84.894 68.879 45.038 108.734z" fill="#e88793"/><path d="m255.113.054c-118.305 0-214.066 95.742-214.066 214.066 0 49.69 16.824 96.79 47.765 134.812 50.139 1.679 112.606-8.799 186.221-45.453 83.626-41.639 146.656-56.687 192.089-59.573 17.942-129.663-82.424-243.852-212.009-243.852zm45.039 259.105c-24.893 24.893-65.182 24.895-90.077 0-39.873-39.873-11.552-108.734 45.039-108.734 56.606 0 84.894 68.879 45.038 108.734z" fill="#fc93a0"/><path d="m406.48 62.753c-118.754-118.754-319.615-59.695-359.112 99.396 33.004 27.879 79.432 49.549 144.429 45.385 3.322-32.224 30.391-57.109 63.317-57.109 22.789 0 42.673 11.867 53.96 29.877 55.931-16.556 104.973-30.412 146.434-41.743-10.591-28.124-27.141-53.92-49.028-75.806z" fill="#fda5b7"/></svg>