<svg id="Capa_1" enable-background="new 0 0 512 512" height="512" viewBox="0 0 512 512" width="512" xmlns="http://www.w3.org/2000/svg"><g><path d="m17.825 94.796c-8.757-3.222-17.825 4.008-17.825 14.236v310.468c0 6.463 3.741 12.2 9.285 14.236l126.715 33.764v-328z" fill="#a9f0f0"/><path d="m240.143 93.318-104.143 46.182v328l120-40v-320c0-10.307-8.107-17.531-15.857-14.182z" fill="#00c6cd"/><path d="m271.857 93.318c-7.847-3.39-15.857 3.999-15.857 14.182v320l120 40v-328z" fill="#64dde0"/><path d="m494.175 94.796-118.175 44.704v328l126.715-33.764c5.544-2.036 9.285-7.773 9.285-14.236v-310.468c0-10.25-9.083-17.451-17.825-14.236z" fill="#00a0aa"/><ellipse cx="256" cy="267.5" fill="#e4f1fb" rx="71.23" ry="55"/><path d="m327.23 267.5c0 27.857-28.106 55-71.23 55v-110c43.324 0 71.23 27.221 71.23 55z" fill="#c9e3f7"/><path d="m335.27 123.5c0 34.861-47.394 102.611-67.32 129.07-5.998 7.9-17.899 7.903-23.9 0-19.958-26.502-67.32-94.056-67.32-129.07 0-43.56 35.56-79 79.27-79s79.27 35.44 79.27 79z" fill="#ff7f4b"/><path d="m335.27 123.5c0 34.861-47.394 102.611-67.32 129.07-2.84 3.74-7.26 5.93-11.95 5.93v-214c43.71 0 79.27 35.44 79.27 79z" fill="#fd5219"/></g></svg>