<?xml version="1.0"?>
<svg xmlns="http://www.w3.org/2000/svg" xmlns:xlink="http://www.w3.org/1999/xlink" xmlns:svgjs="http://svgjs.com/svgjs" version="1.1" width="512" height="512" x="0" y="0" viewBox="0 0 510.003 510.003" style="enable-background:new 0 0 512 512" xml:space="preserve" class=""><g><g xmlns="http://www.w3.org/2000/svg"><path d="m422.002 355.204c0 8.28-10.72 8-19 8h-301c-8.28 0-14 .28-14-8 0-92.08 74.92-167 167-167s167 74.92 167 167z" fill="#ffa84b" data-original="#ff7f4b" style="" class=""/><path d="m422.002 355.204c0 8.28-10.72 8-19 8h-148v-175c92.08 0 167 74.92 167 167z" fill="#ff7510" data-original="#fd5219" style="" class=""/><path d="m510.002 355.204c0 8.28-6.72 15-15 15h-480c-8.28 0-15-6.72-15-15s6.72-15 15-15h480c8.28 0 15 6.72 15 15z" fill="#a9f0f0" data-original="#a9f0f0" style=""/><path d="m510.002 355.204c0 8.28-6.72 15-15 15h-240v-30h240c8.28 0 15 6.72 15 15z" fill="#64dde0" data-original="#64dde0" style=""/><path d="m199.002 434.204h-136c-8.284 0-15-6.716-15-15s6.716-15 15-15h136c8.284 0 15 6.716 15 15s-6.716 15-15 15z" fill="#a9f0f0" data-original="#a9f0f0" style=""/><path d="m470.002 434.204h-200c-8.284 0-15-6.716-15-15s6.716-15 15-15h200c8.284 0 15 6.716 15 15s-6.716 15-15 15z" fill="#64dde0" data-original="#64dde0" style=""/><path d="m495.002 498.204h-136c-8.284 0-15-6.716-15-15s6.716-15 15-15h136c8.284 0 15 6.716 15 15s-6.716 15-15 15z" fill="#64dde0" data-original="#64dde0" style=""/><path d="m183.002 498.204h-168c-8.284 0-15-6.716-15-15s6.716-15 15-15h168c8.284 0 15 6.716 15 15s-6.716 15-15 15z" fill="#a9f0f0" data-original="#a9f0f0" style=""/><path d="m310.002 483.204c0 8.28-6.72 15-15 15h-48c-8.28 0-15-6.72-15-15s6.72-15 15-15h48c8.28 0 15 6.72 15 15z" fill="#64dde0" data-original="#64dde0" style=""/><path d="m450.521 83.122-32-48c-4.595-6.893-2.732-16.206 4.161-20.801 6.893-4.597 16.206-2.734 20.801 4.16l19.519 29.278 19.519-29.278c4.597-6.894 13.91-8.756 20.801-4.16 6.893 4.595 8.756 13.908 4.161 20.801l-32 48c-5.924 8.885-19.021 8.911-24.962 0z" fill="#5a344b" data-original="#5a344b" style=""/><path d="m300.452 98.554-32 48c-5.927 8.89-19.023 8.906-24.96 0l-32-48c-4.6-6.89-2.73-16.21 4.16-20.8 6.89-4.6 16.21-2.73 20.8 4.16 19.458 29.192 18.177 27.273 19.52 29.28l19.52-29.28c4.6-6.9 13.91-8.76 20.8-4.16 6.89 4.59 8.76 13.91 4.16 20.8z" fill="#704c55" data-original="#704c55" style=""/><path d="m300.452 98.554-32 48c-2.935 4.403-8.013 6.99-13.45 6.65v-43.46l.97 1.45 19.52-29.28c4.6-6.9 13.91-8.76 20.8-4.16 6.89 4.59 8.76 13.91 4.16 20.8z" fill="#5a344b" data-original="#5a344b" style=""/><path d="m34.521 218.554-32-48c-4.595-6.893-2.732-16.206 4.161-20.801 6.892-4.597 16.206-2.734 20.801 4.16l19.519 29.278 19.519-29.278c4.596-6.895 13.911-8.755 20.801-4.16 6.893 4.595 8.756 13.908 4.161 20.801l-32 48c-5.924 8.885-19.021 8.911-24.962 0z" fill="#704c55" data-original="#704c55" style=""/><path d="m106.923 99.122-32-48c-4.595-6.893-2.732-16.206 4.161-20.801 6.892-4.597 16.206-2.733 20.801 4.16l19.519 29.278 19.519-29.278c4.596-6.894 13.91-8.755 20.801-4.16 6.893 4.595 8.756 13.908 4.161 20.801l-32 48c-5.924 8.885-19.021 8.911-24.962 0z" fill="#704c55" data-original="#704c55" style=""/><path d="m403.491 210.554-32-48c-4.595-6.893-2.732-16.206 4.161-20.801 6.892-4.597 16.206-2.733 20.801 4.16l19.519 29.278 19.519-29.278c4.596-6.895 13.909-8.756 20.801-4.16 6.893 4.595 8.756 13.908 4.161 20.801l-32 48c-5.924 8.885-19.02 8.911-24.962 0z" fill="#5a344b" data-original="#5a344b" style=""/></g></g></svg>
