<svg id="Capa_1" enable-background="new 0 0 510.08 510.08" height="512" viewBox="0 0 510.08 510.08" width="512" xmlns="http://www.w3.org/2000/svg"><g><path d="m498.04 123.104v259c0 8.28-6.72 15-15 15-107.47 0-79.16 19.12-114.62 7.55-19.725-6.454-16.406-6.04-18.81-5.22-45.85 15.28-40.3 14.67-66.76 14.67-32.46.45-85.35 0-267.81 0-8.28 0-15-6.72-15-15v-288c0-8.28 6.72-15 15-15 181.9 0 242.79-.38 271.27 0 22.82 0 18.59-.17 44.85 8.53 22.19 7.39 19.47 6.81 20.89 6.37 56.89-19 14.16-2.9 130.99-2.9 8.28 0 15 6.72 15 15z" fill="#e4f1fb"/><path d="m498.04 255.104v127c0 8.28-6.72 15-15 15-108.807 0-77.968 19.545-116.31 6.99-17.91-5.97-14.92-5.41-17.12-4.66-45.85 15.28-40.3 14.67-66.76 14.67-32.46.45-85.35 0-267.81 0-8.28 0-15-6.72-15-15 0-156.156-.04-135.972-.04-144z" fill="#c9e3f7"/><path d="m510.04 399.104c0 8.28-6.72 15-15 15-109.129 0-90.246 2.723-128.31-10.01-14.352-4.781-15.377-5.141-15.61-5.17-.134.038-.042 6.87-.08-143.82 0-154.89-.578-143.603 1.01-144.1 56.892-18.996 26.162-14.9 142.99-14.9 8.28 0 15 6.72 15 15z" fill="#a9f0f0"/><path d="m510.08 255.104c.003 1.409-.04-12.8-.04 144 0 8.28-6.72 15-15 15-109.129 0-90.246 2.723-128.31-10.01-14.352-4.781-15.377-5.141-15.61-5.17-.134.038-.042 6.87-.08-143.82z" fill="#64dde0"/><path d="m302.04 327.104c0 8.28-6.72 15-15 15h-208c-8.28 0-15-6.72-15-15s6.72-15 15-15h208c8.28 0 15 6.72 15 15z" fill="#fd5219"/><path d="m366.04 359.104v44.76l-14.88-4.95-15.12 5.04v-44.85c0-8.28 6.72-15 15-15s15 6.72 15 15z" fill="#00a0aa"/><path d="m366.04 223.104v64c0 8.28-6.72 15-15 15s-15-6.72-15-15v-64c0-8.28 6.72-15 15-15s15 6.72 15 15z" fill="#00c6cd"/><path d="m366.04 255.104v32c0 8.28-6.72 15-15 15s-15-6.72-15-15v-32z" fill="#00a0aa"/><path d="m366.14 106.304-.1 52.83c-.02 8.27-6.73 14.97-15 14.97-8.263 0-15.02-6.713-15-15.03l.1-52.78 15.02 5z" fill="#00c6cd"/><path d="m453.04 191.104v128c0 8.28-6.72 15-15 15s-15-6.72-15-15v-128c0-8.28 6.72-15 15-15s15 6.72 15 15z" fill="#00c6cd"/><path d="m453.04 255.104v64c0 8.28-6.72 15-15 15s-15-6.72-15-15v-64z" fill="#00a0aa"/><path d="m278.04 200.104c0 8.28-6.72 15-15 15h-48.79l-27.5 34.37c-2.96 3.7-7.32 5.63-11.72 5.63-12.342 0-19.663-14.424-11.7-24.37l12.5-15.63h-48.79c-4.72 0-9.17-2.22-12-6l-24-32c-4.97-6.63-3.63-16.03 3-21s16.03-3.63 21 3l19.5 26h128.5c8.28 0 15 6.72 15 15z" fill="#ff7f4b"/></g></svg>